<?xml version="1.0" encoding="utf-8"?>
<!-- Generator: Adobe Illustrator 16.0.0, SVG Export Plug-In . SVG Version: 6.00 Build 0)  -->
<!DOCTYPE svg PUBLIC "-//W3C//DTD SVG 1.1//EN" "http://www.w3.org/Graphics/SVG/1.1/DTD/svg11.dtd">
<svg version="1.1" id="Layer_1" xmlns:sketch="http://www.bohemiancoding.com/sketch/ns"
	 xmlns="http://www.w3.org/2000/svg" xmlns:xlink="http://www.w3.org/1999/xlink" x="0px" y="0px" width="52px" height="50px"
	 viewBox="0 0 52 50" enable-background="new 0 0 52 50" xml:space="preserve">
<path d="M26.688,40.12"/>
<path d="M29.261,41.235"/>
<text transform="matrix(1 0 0 1 -2.5 33.833)" fill="#87A623" font-family="'EPSON-KAISHO'" font-size="24">国</text>
<text transform="matrix(1 0 0 1 25.4678 19.0054)" fill="#87A623" font-family="'EPSON-KAISHO'" font-size="30">口</text>
<text transform="matrix(1 0 0 1 27.9746 49.2295)" fill="#91A623" font-family="'EPSON-KAISHO'" font-size="24">玉</text>
<path d="M27.975,35.364"/>
<path d="M22.618,40.678"/>
<g>
	<path stroke="#87A623" stroke-width="2" stroke-linecap="round" stroke-linejoin="round" stroke-miterlimit="10" d="M26.452,14.372
		c-1.97,1.683-2.767,2.365-4.68,4"/>
	<path stroke="#87A623" stroke-width="2" stroke-linecap="round" stroke-linejoin="round" stroke-miterlimit="10" d="M21.772,31.371
		c1.561,1.334,3.119,2.668,4.681,4"/>
	<path fill="#87A623" d="M23.739,11.73c1.356,1.321,2.713,2.642,4.069,3.963c0.453,0.44,0.904,0.88,1.355,1.32
		c0-1.761,0-3.522,0-5.283"/>
	<polyline fill="#87A623" points="28.687,32.473 23.816,38.27 29.087,37.881 	"/>
</g>
</svg>
