<?xml version="1.0" encoding="utf-8"?>
<!-- Generator: Adobe Illustrator 16.0.0, SVG Export Plug-In . SVG Version: 6.00 Build 0)  -->
<!DOCTYPE svg PUBLIC "-//W3C//DTD SVG 1.1//EN" "http://www.w3.org/Graphics/SVG/1.1/DTD/svg11.dtd">
<svg version="1.1" id="Layer_1" xmlns:sketch="http://www.bohemiancoding.com/sketch/ns"
	 xmlns="http://www.w3.org/2000/svg" xmlns:xlink="http://www.w3.org/1999/xlink" x="0px" y="0px" width="52px" height="50px"
	 viewBox="0 0 52 50" enable-background="new 0 0 52 50" xml:space="preserve">
<image overflow="visible" width="50" height="50" xlink:href="DC136554.jpg"  transform="matrix(1 0 0 1 -65.375 -1.75)">
</image>
<polyline fill="#87A623" points="4.042,6.415 4.042,3.48 43.541,3.375 43.791,6.625 "/>
<polyline fill="#87A623" points="2.25,10.125 4.625,7.875 44.375,45.75 41.75,48.375 "/>
<polyline fill="#87A623" points="2.875,24.858 42.613,9.875 44.5,12.241 4.133,27.75 "/>
<polyline fill="#87A623" points="2.25,40.875 4.375,38 16.625,44.75 41.75,10.75 44.5,12.241 19.125,47.125 16.875,48.125 "/>
<text transform="matrix(1 0 0 1 45.375 7.917)" fill="#87A623" font-family="'AdobeGothicStd-Bold-KSCpc-EUC-H'" font-size="10">5</text>
<text transform="matrix(1 0 0 1 45.041 18.5825)" fill="#87A623" font-family="'AdobeGothicStd-Bold-KSCpc-EUC-H'" font-size="10">4</text>
<text transform="matrix(1 0 0 1 45.084 28.375)" fill="#87A623" font-family="'AdobeGothicStd-Bold-KSCpc-EUC-H'" font-size="10">3</text>
<text transform="matrix(1 0 0 1 44.75 38.375)" fill="#87A623" font-family="'AdobeGothicStd-Bold-KSCpc-EUC-H'" font-size="10">2</text>
<text transform="matrix(1 2.667904e-004 -2.667904e-004 1 45.166 48.333)" fill="#87A623" font-family="'AdobeGothicStd-Bold-KSCpc-EUC-H'" font-size="10">1</text>
<polyline fill="#87A623" points="1.25,20 1.25,19.25 51,19.25 51.125,20 "/>
<polyline fill="#87A623" points="1.042,10.083 1.042,9.333 50.792,9.333 50.917,10.083 "/>
<polyline fill="#87A623" points="1.042,29.834 1.042,29.084 50.792,29.084 50.917,29.834 "/>
<polyline fill="#87A623" points="1.042,39.584 1.042,38.834 50.792,38.834 50.917,39.584 "/>
</svg>
