<?xml version="1.0" encoding="utf-8"?>
<!-- Generator: Adobe Illustrator 16.0.0, SVG Export Plug-In . SVG Version: 6.00 Build 0)  -->
<!DOCTYPE svg PUBLIC "-//W3C//DTD SVG 1.1//EN" "http://www.w3.org/Graphics/SVG/1.1/DTD/svg11.dtd">
<svg version="1.1" id="Layer_1" xmlns:sketch="http://www.bohemiancoding.com/sketch/ns"
	 xmlns="http://www.w3.org/2000/svg" xmlns:xlink="http://www.w3.org/1999/xlink" x="0px" y="0px" width="52px" height="50px"
	 viewBox="0 0 52 50" enable-background="new 0 0 52 50" xml:space="preserve">
<ellipse fill="#87A623" cx="25.563" cy="8" rx="6.438" ry="5.875"/>
<path fill="#87A623" d="M4.625,9.375c5.056,2.962,9.867,6.86,15.855,7.677c4.72,0.644,10.215,0.302,14.811-0.949
	c2.372-0.645,4.667-1.68,6.707-3.053c0.776-0.522,2.68-1.672,3.377-2.55c0.506-0.637,0.976-0.491,1.625-0.125l-3.104,4.04
	l-3.273,4.257c-1.104,1.36-2.206,2.725-3.311,4.085c-0.691,0.852-1.354,1.773-2.109,2.568c-0.965,1.013-2.205,2.488-2.827,3.799
	c-1.034,2.18,1.686,4.308,2.75,5.875c3.225,4.746,7.658,8.003,10.609,12.641c-1.175-0.027-1.421-0.137-2.293-0.86
	c-0.729-0.603-1.415-1.257-2.119-1.887c-2.216-1.982-4.59-3.994-7.333-5.208c-2.579-1.142-5.444-1.12-8.218-1.135
	C18.998,38.514,14.292,43.97,9.125,47.5L7.75,48.25l3.75-5.75c0,0,1.715-3.063,1.75-3.124c2.019-3.605,3.775-8.007,2.387-12.126
	c-0.663-1.966-1.352-3.457-2.485-5.183L9.75,16.875L5.125,11.25l-0.75-1"/>
</svg>
