<?xml version="1.0" encoding="utf-8"?>
<!-- Generator: Adobe Illustrator 16.0.0, SVG Export Plug-In . SVG Version: 6.00 Build 0)  -->
<!DOCTYPE svg PUBLIC "-//W3C//DTD SVG 1.1//EN" "http://www.w3.org/Graphics/SVG/1.1/DTD/svg11.dtd">
<svg version="1.1" id="Layer_1" xmlns:sketch="http://www.bohemiancoding.com/sketch/ns"
	 xmlns="http://www.w3.org/2000/svg" xmlns:xlink="http://www.w3.org/1999/xlink" x="0px" y="0px" width="52px" height="50px"
	 viewBox="0 0 52 50" enable-background="new 0 0 52 50" xml:space="preserve">
<g>
	<path fill="#87A623" d="M7.21,38.229c-0.165,0.423-0.246,1.206-0.246,2.351c0,1.084-0.034,2.41-0.099,3.977
		c-0.066,1.568-0.231,2.697-0.493,3.39c-0.263,0.692-0.576,0.647-0.936-0.136c-0.362-0.782-0.428-1.446-0.197-1.988
		c0.229-0.543,0.394-1.37,0.493-2.486c0.099-1.113,0.147-2.244,0.147-3.389c0-1.205-0.066-2.049-0.197-2.531
		c-0.788,0.904-1.495,1.613-2.118,2.124c-0.625,0.513-1.364,0.994-2.217,1.446c-0.854,0.451-0.837,0.271,0.049-0.543
		c0.887-0.813,1.74-1.73,2.562-2.756c0.82-1.024,1.56-2.199,2.217-3.525c0.656-1.325,0.936-2.319,0.837-2.983
		c-0.099-0.662,0.311-0.692,1.231-0.091c0.919,0.604,1.247,1.025,0.985,1.266c-0.263,0.242-0.576,0.633-0.936,1.176
		c-0.362,0.542-1.035,1.567-2.02,3.073C7.063,37.266,7.373,37.809,7.21,38.229z M10.954,42.025c0.032,1.085-0.263,2.125-0.887,3.119
		c-0.625,0.994-1.051,1.16-1.281,0.497c-0.231-0.663-0.098-1.325,0.394-1.989c0.493-0.662,0.902-1.355,1.231-2.078
		C10.74,40.791,10.92,40.941,10.954,42.025z M13.121,37.28c-0.295,0.091-0.674-0.046-1.133-0.407
		c-0.724,0.904-1.478,1.613-2.266,2.125s-0.92,0.438-0.394-0.227c0.525-0.662,1.133-1.491,1.823-2.485
		c0.689-0.995,1.247-2.034,1.675-3.118c0.426-1.085,0.574-1.928,0.443-2.531c-0.132-0.602,0.296-0.662,1.281-0.182
		c0.985,0.484,1.313,0.891,0.985,1.221c-0.33,0.332-0.689,0.829-1.083,1.492s-1.084,1.748-2.069,3.254
		c0.394,0,1.066-0.105,2.02-0.316c0.951-0.211,1.756-0.422,2.414-0.633c0.656-0.211,1.165-0.421,1.527-0.633
		c0.36-0.211,0.804-0.227,1.33-0.045c0.525,0.18,1.083,0.482,1.675,0.903c0.591,0.423,0.458,0.755-0.394,0.995
		c-0.854,0.24-1.692,0.768-2.512,1.581c-0.822,0.813-1.002,0.693-0.542-0.361c0.459-1.054,0.656-1.642,0.591-1.763
		c-0.066-0.12-0.313-0.136-0.739-0.045c-0.428,0.09-1.33,0.287-2.709,0.588l-0.788,0.271C13.793,37.086,13.417,37.189,13.121,37.28z
		 M15.535,38.5c0.525,0.242,0.689,0.529,0.493,0.859c-0.197,0.332-0.296,1.281-0.296,2.848c0,1.506,0.049,2.787,0.148,3.842
		s-0.148,1.974-0.739,2.756c-0.591,0.783-1.051,0.873-1.379,0.271c-0.329-0.604-0.887-1.13-1.675-1.582
		c-0.788-0.451-0.805-0.617-0.049-0.497c0.754,0.122,1.33,0.167,1.724,0.136c0.394-0.029,0.606-0.662,0.641-1.898
		c0.032-1.234,0.015-2.516-0.049-3.842c-0.066-1.324-0.231-2.199-0.493-2.621c-0.263-0.421-0.197-0.633,0.197-0.633
		C14.516,38.139,15.008,38.26,15.535,38.5z M21.593,43.834c0.295,0.603,0.345,1.189,0.148,1.762
		c-0.197,0.574-0.69,0.453-1.478-0.361c-0.788-0.813-1.561-1.641-2.315-2.485c-0.756-0.843-0.411-1.024,1.035-0.542
		C20.427,42.689,21.298,43.232,21.593,43.834z"/>
	<path fill="#87A623" d="M36.729,37.416c0.064-0.543,0.051-1.009-0.049-1.401c-0.098-0.392,0.049-0.511,0.443-0.361
		c0.395,0.151,0.789,0.393,1.182,0.724c0.395,0.331,0.477,0.572,0.246,0.723s-0.443,0.558-0.639,1.221
		c-0.197,0.663-0.461,1.432-0.789,2.305c-0.33,0.874-0.689,1.643-1.084,2.305c1.117,0.783,1.838,1.416,2.168,1.898
		c0.328,0.482,0.377,0.994,0.148,1.536c-0.232,0.542-0.641,0.407-1.232-0.407c-0.592-0.813-1.248-1.49-1.971-2.033
		c-0.723,0.845-1.543,1.568-2.463,2.17c-0.92,0.603-1.807,0.994-2.659,1.175c-0.854,0.181-0.903,0.076-0.147-0.316
		c0.754-0.392,1.527-0.918,2.314-1.582c0.789-0.662,1.51-1.415,2.168-2.26c-0.855-0.782-1.445-1.295-1.773-1.536
		c-0.33-0.24-0.428-0.557-0.295-0.949c0.131-0.392,0.295-0.949,0.492-1.672c-1.248,0.24-2.168,0.467-2.759,0.678
		s-1.199,0.045-1.823-0.498c-0.625-0.542-0.509-0.768,0.346-0.678c0.853,0.091,2.363-0.045,4.531-0.406
		c0.328-1.506,0.574-2.803,0.738-3.887c0.164-1.085,0.131-1.912-0.098-2.486c-0.23-0.572-0.084-0.782,0.443-0.633
		c0.525,0.151,0.984,0.393,1.379,0.724s0.477,0.632,0.246,0.903s-0.477,0.859-0.738,1.764c-0.264,0.903-0.559,2.049-0.887,3.434
		L36.729,37.416z M35.941,40.398c0.328-0.782,0.557-1.566,0.689-2.35l-2.66,0.542c-0.395,1.326-0.625,2.095-0.689,2.306
		c-0.066,0.211,0.031,0.393,0.295,0.541c0.262,0.152,0.723,0.438,1.379,0.859C35.283,41.815,35.611,41.183,35.941,40.398z
		 M45.104,38.5c1.838-0.24,3.037-0.42,3.596-0.542c0.557-0.12,1.033-0.12,1.428,0c0.395,0.122,0.738,0.348,1.035,0.679
		c0.295,0.331-0.182,0.512-1.43,0.541c-1.248,0.031-2.725,0.137-4.432,0.316c0.131,0.846,0.211,2.08,0.246,3.707
		c0.031,1.627-0.115,2.924-0.443,3.887c-0.33,0.965-0.789,1.641-1.379,2.033c-0.592,0.392-0.971,0.316-1.135-0.226
		s-0.674-1.144-1.525-1.808c-0.855-0.662-0.855-0.844,0-0.543c0.852,0.303,1.525,0.377,2.02,0.227c0.492-0.15,0.82-1.1,0.984-2.848
		c0.164-1.747,0.148-3.164-0.049-4.248c-1.051,0.121-1.871,0.226-2.463,0.316c-0.592,0.09-1.117,0.181-1.576,0.271
		c-0.461,0.09-1.02-0.03-1.676-0.362c-0.656-0.33-0.656-0.511,0-0.542c0.656-0.029,1.461-0.09,2.414-0.182
		c0.951-0.09,1.986-0.255,3.104-0.496c-0.33-0.904-0.738-1.551-1.232-1.943c-0.492-0.392-0.574-0.617-0.246-0.678s0.82,0,1.479,0.18
		c0.789-0.963,1.313-1.686,1.576-2.169c0.262-0.481,0.346-0.798,0.246-0.949c-0.098-0.149-0.641-0.091-1.625,0.181
		c-0.986,0.271-1.758,0.528-2.314,0.769c-0.561,0.241-1.184,0.151-1.873-0.271s-0.674-0.633,0.049-0.633
		c0.789,0,1.627-0.075,2.514-0.227c0.887-0.149,1.592-0.285,2.117-0.406s0.951-0.256,1.281-0.407c0.328-0.149,0.738-0.149,1.23,0
		c0.492,0.151,0.969,0.438,1.43,0.858c0.459,0.423,0.328,0.738-0.395,0.949c-0.725,0.212-2.037,1.13-3.941,2.758
		C44.576,37.115,44.906,37.719,45.104,38.5z"/>
</g>
<g>
	<path fill="#87A623" d="M10.235,1.792c0.101-0.083,0.263-0.12,0.486-0.113s0.371,0.059,0.443,0.155
		c0.144,0.151,0.094,0.619-0.151,1.403c-0.245,0.785-0.54,1.404-0.886,1.858c-0.173,0.275-0.173,0.399,0,0.371
		c0.101,0,0.346-0.062,0.734-0.186c0.375-0.151,0.619-0.227,0.734-0.227s0.669-0.182,1.663-0.547
		c0.994-0.364,1.526-0.581,1.599-0.65c0.057-0.055,0.194-0.083,0.41-0.083c0.13,0,0.303-0.068,0.519-0.206
		c0.216-0.151,0.497-0.258,0.842-0.32c0.346-0.062,0.943-0.106,1.793-0.134c1.037-0.055,1.577-0.104,1.62-0.145
		c0.101-0.096,0.273-0.11,0.518-0.042c0.202,0.028,0.36,0.117,0.476,0.269c0.115,0.151,0.108,0.31-0.022,0.475
		C21,3.698,20.978,3.825,20.949,4.052C20.92,4.279,20.855,4.4,20.754,4.414c-0.72,0.234-1.116,0.33-1.188,0.289
		c-0.014-0.027-0.021-0.034-0.021-0.021c0,0.014,0.007,0.042,0.021,0.083c0.029,0.028-0.007,0.104-0.108,0.227
		c-0.101,0.124-0.23,0.241-0.389,0.351c-0.159,0.11-0.267,0.165-0.324,0.165s-0.133,0.069-0.227,0.207
		c-0.094,0.138-0.162,0.2-0.205,0.186c-0.015-0.014-0.051-0.007-0.108,0.021C18.148,5.948,18.08,5.989,18,6.044
		c-0.079,0.055-0.162,0.09-0.248,0.103c-0.159,0.028-0.515,0.221-1.069,0.578c-0.555,0.358-0.89,0.557-1.004,0.599l-0.043,0.041
		c-0.259,0.097-0.41,0.231-0.454,0.403c-0.043,0.172-0.064,0.712-0.064,1.62c0,0.22,0,0.392,0,0.516
		c0,0.426-0.008,1.029-0.022,1.806c-0.014,0.778-0.021,1.449-0.021,2.013c0,0.564,0.014,1.025,0.043,1.383
		c0.043,0.537-0.065,1.266-0.324,2.188c-0.245,0.949-0.332,1.458-0.259,1.527c0.043,0.013,0.043,0.041,0,0.083
		c-0.043,0.041-0.108,0.083-0.194,0.124c-0.159,0.027-0.23,0.083-0.216,0.166c0,0.055,0.036,0.083,0.108,0.083
		c0.072,0,0.108,0.048,0.108,0.144c0,0.083-0.101,0.172-0.302,0.269c-0.202,0.096-0.403,0.137-0.605,0.124
		c-0.202-0.014-0.302-0.131-0.302-0.351c0-0.055-0.151-0.245-0.454-0.567c-0.302-0.324-0.511-0.513-0.626-0.568
		c-0.159-0.041-0.393-0.372-0.702-0.991s-0.507-0.983-0.594-1.094c-0.101-0.124-0.148-0.227-0.141-0.31s0.068-0.124,0.184-0.124
		s0.249,0.072,0.4,0.217c0.151,0.145,0.227,0.272,0.227,0.382c0,0.055,0.036,0.083,0.108,0.083c0.029,0,0.061,0.018,0.097,0.052
		s0.054,0.072,0.054,0.113c0,0.083,0.23,0.333,0.691,0.753c0.46,0.419,0.734,0.629,0.821,0.629c0.115,0,0.251-0.351,0.41-1.052
		c0.144-0.454,0.223-0.891,0.238-1.311c0.014-0.419-0.015-1.4-0.086-2.941c-0.029-1.184-0.043-2.539-0.043-4.066
		c0-0.591-0.072-0.956-0.216-1.094c-0.13-0.137-0.234-0.344-0.313-0.619c-0.079-0.275-0.097-0.461-0.054-0.557
		c0.057-0.096,0.176-0.155,0.356-0.176c0.18-0.021,0.356,0.004,0.529,0.072c0.072,0.014,0.144,0.072,0.216,0.176
		c0.072,0.103,0.137,0.206,0.194,0.31c0.058,0.103,0.129,0.2,0.216,0.289c0.086,0.09,0.166,0.142,0.238,0.155
		c0.072,0.014,0.151-0.034,0.238-0.144c0.014-0.014,0.251-0.207,0.712-0.578c0.259-0.192,0.641-0.516,1.145-0.97
		c0.504-0.454,0.835-0.743,0.994-0.867c0.259-0.248,0.36-0.399,0.302-0.454c-0.015-0.042-0.446,0.003-1.296,0.134
		s-1.332,0.217-1.447,0.258c-0.446,0.207-1.015,0.434-1.707,0.681c-0.691,0.248-1.094,0.372-1.209,0.372
		c-0.129,0-0.245,0.048-0.346,0.145c-0.043,0.069-0.198,0.148-0.464,0.237c-0.267,0.09-0.522,0.162-0.767,0.217l-0.389,0.083
		c0,0.055-0.31,0.124-0.929,0.207C9.544,6.567,9.422,6.601,9.35,6.643C9.277,6.684,9.228,6.767,9.199,6.89
		C9.169,7.083,9.094,7.272,8.972,7.458C8.849,7.644,8.752,7.716,8.68,7.674C7.989,8.996,7.593,9.656,7.492,9.656
		C7.348,9.643,7.236,9.677,7.157,9.759s-0.14,0.261-0.184,0.537c-0.331,1.541-0.526,2.718-0.583,3.529
		c-0.043,0.743-0.194,1.486-0.454,2.229c-0.23,0.702-0.385,1.115-0.464,1.239c-0.08,0.124-0.234,0.206-0.464,0.248
		c-0.216,0.014-0.367-0.021-0.454-0.104c-0.086-0.083-0.112-0.199-0.076-0.351c0.036-0.151,0.083-0.303,0.141-0.454
		c0.057-0.151,0.119-0.306,0.184-0.464C4.868,16.01,4.9,15.903,4.9,15.848c0.028-0.454,0.061-0.826,0.097-1.115
		c0.036-0.289,0.09-0.646,0.162-1.073c0.072-0.426,0.123-0.805,0.151-1.135c0.187-1.651,0.346-2.573,0.475-2.766
		c0.086-0.151,0.108-0.316,0.065-0.496C5.808,9.085,5.8,8.92,5.829,8.769c0.072-0.234,0.072-0.44,0-0.619
		C5.8,8.053,5.75,8.081,5.678,8.232C5.663,8.287,5.642,8.355,5.613,8.438C5.584,8.521,5.566,8.576,5.559,8.604
		C5.552,8.631,5.526,8.672,5.483,8.727C5.44,8.782,5.368,8.844,5.268,8.913C5.209,8.968,5.095,9.109,4.922,9.336
		S4.576,9.773,4.403,9.965c-0.173,0.193-0.317,0.289-0.432,0.289c-0.172,0-0.338-0.068-0.497-0.206
		C3.316,9.911,3.237,9.766,3.237,9.615c0-0.124,0.137-0.372,0.411-0.743C3.921,8.5,4.202,8.17,4.49,7.881
		C4.59,7.798,4.717,7.633,4.868,7.386C5.019,7.138,5.209,6.825,5.44,6.446C5.67,6.068,5.8,5.837,5.829,5.755
		c0.245-0.413,0.367-0.694,0.367-0.846c0-0.261,0.18-0.488,0.54-0.681c0.36-0.192,0.626-0.13,0.799,0.186
		c0.086,0.151,0.125,0.282,0.119,0.392c-0.007,0.11-0.083,0.323-0.227,0.64c-0.029,0.097-0.09,0.237-0.184,0.423
		C7.15,6.054,7.093,6.178,7.071,6.24C7.049,6.302,7.053,6.402,7.082,6.54C7.11,6.595,7.118,6.835,7.104,7.262
		c0,0.702,0.043,1.053,0.129,1.053C7.363,8.26,7.427,8.18,7.427,8.077c0-0.104,0.259-0.65,0.778-1.641
		c0.504-0.908,1.044-2.146,1.62-3.715C9.998,2.212,10.134,1.902,10.235,1.792z M9.35,15.105c0,0.165-0.162,0.365-0.486,0.599
		c-0.324,0.234-0.594,0.351-0.81,0.351c-0.302,0-0.49-0.034-0.562-0.103c-0.173-0.137-0.241-0.313-0.205-0.526
		c0.036-0.213,0.154-0.32,0.356-0.32c0.144,0,0.381-0.192,0.713-0.578c0.331-0.385,0.562-0.736,0.691-1.052
		c0.734-1.638,1.08-2.663,1.037-3.076c-0.014-0.207,0.086-0.344,0.303-0.413c0.216-0.069,0.41-0.048,0.583,0.062
		c0.187,0.11,0.302,0.21,0.346,0.299c0.043,0.089,0.065,0.237,0.065,0.443c0,0.303-0.04,0.582-0.119,0.836
		c-0.079,0.255-0.184,0.526-0.313,0.815s-0.23,0.516-0.302,0.681c-0.188,0.509-0.548,1.073-1.08,1.692
		C9.422,14.94,9.35,15.036,9.35,15.105z M18.681,13.124c0-0.042-0.105-0.186-0.313-0.434c-0.209-0.248-0.313-0.399-0.313-0.454
		c0-0.096-0.029-0.145-0.086-0.145c-0.072,0-0.321-0.158-0.745-0.475c-0.425-0.316-0.681-0.522-0.767-0.619
		c-0.058-0.096-0.144-0.145-0.259-0.145c-0.101,0-0.194-0.083-0.281-0.248s-0.094-0.282-0.021-0.351
		c0.316-0.22,0.702-0.248,1.156-0.083s0.893,0.389,1.317,0.671c0.425,0.282,0.616,0.451,0.573,0.506
		c0,0.041,0.021,0.096,0.064,0.165c0.043,0.069,0.104,0.148,0.184,0.237c0.079,0.09,0.133,0.168,0.162,0.237
		c0.216,0.33,0.572,0.74,1.069,1.228c0.497,0.489,0.907,0.898,1.231,1.228c0.324,0.331,0.443,0.516,0.356,0.558
		c-0.072,0.055-0.159,0.168-0.259,0.34c-0.101,0.172-0.151,0.306-0.151,0.402c0,0.248-0.173,0.265-0.519,0.052
		s-0.54-0.444-0.583-0.691c-0.015-0.083-0.051-0.131-0.108-0.145c0,0.014-0.086-0.069-0.259-0.248
		c-0.173-0.179-0.356-0.385-0.551-0.619c-0.195-0.234-0.321-0.372-0.378-0.413C18.854,13.392,18.681,13.206,18.681,13.124z"/>
	<path fill="#87A623" d="M33.995,1.272c0.044-0.291,0.22-0.471,0.529-0.541s0.551,0.035,0.724,0.313
		c0.015,0.013,0.029,0.031,0.043,0.057c0.015,0.025,0.029,0.047,0.044,0.066c0.014,0.019,0.021,0.047,0.021,0.085
		c0,0.038,0,0.073,0,0.104c0,0.032,0,0.073,0,0.124c0,0.05,0,0.101,0,0.151c0,0.051-0.008,0.114-0.021,0.19
		c-0.015,0.076-0.025,0.142-0.032,0.199c-0.008,0.057-0.015,0.143-0.022,0.256c-0.007,0.113-0.018,0.215-0.032,0.303
		c-0.058,0.606-0.18,1.321-0.367,2.143s-0.31,1.396-0.367,1.725C34.499,6.6,34.471,6.707,34.428,6.77
		c-0.043,0.063-0.065,0.111-0.065,0.142c0,0.032,0,0.18,0,0.446c0.029,0.266-0.011,0.651-0.118,1.157
		c-0.108,0.505-0.227,0.822-0.356,0.948c-0.029,0.063-0.025,0.12,0.011,0.171c0.035,0.05,0.097,0.082,0.184,0.095
		c0.086,0.013,0.18,0.013,0.28,0L36.221,9.5c-0.015-0.025-0.004-0.047,0.032-0.066c0.035-0.019,0.068-0.028,0.097-0.028
		c0.029,0,0.065-0.117,0.108-0.351c0.043-0.233,0.086-0.502,0.13-0.806c0.043-0.303,0.064-0.474,0.064-0.512
		c0.086-0.48,0.173-0.759,0.259-0.834c0.202-0.202,0.439-0.228,0.713-0.076c0.273,0.151,0.382,0.36,0.324,0.625
		c-0.029,0.114-0.072,0.193-0.13,0.237c-0.058,0.045-0.086,0.18-0.086,0.408c0,0.304-0.036,0.455-0.108,0.455
		c-0.015,0-0.028,0.007-0.043,0.019c-0.015,0.013-0.015,0.038,0,0.076c0.043,0.165,0.051,0.338,0.021,0.521
		c-0.029,0.184-0.097,0.433-0.205,0.749s-0.169,0.5-0.184,0.55c-0.015,0.202-0.075,0.405-0.184,0.607s-0.205,0.455-0.292,0.758
		c0,0.013-0.021,0.079-0.064,0.199s-0.108,0.281-0.194,0.483c-0.375,0.847-0.598,1.27-0.67,1.27c-0.115,0-0.079,0.126,0.108,0.379
		c0.058,0.088,0.108,0.158,0.151,0.208c0.014,0,0.173,0.051,0.475,0.152c0.303,0.101,0.602,0.199,0.896,0.294
		c0.295,0.095,0.443,0.161,0.443,0.199c0.014,0.013,0.032,0.047,0.054,0.104c0.021,0.057,0.032,0.101,0.032,0.133
		c0,0.031,0,0.069,0,0.114c0,0.044-0.011,0.082-0.032,0.114c-0.021,0.031-0.054,0.072-0.098,0.123
		c-0.058,0.038-0.104,0.104-0.14,0.199c-0.036,0.095-0.112,0.161-0.228,0.199c-0.086,0.051-0.28,0.019-0.583-0.095
		c-0.302-0.114-0.453-0.202-0.453-0.265c0-0.038-0.036-0.038-0.108,0c-0.072,0.038-0.107,0.025-0.107-0.038
		c0-0.051-0.065-0.092-0.194-0.123c-0.13-0.032-0.249-0.07-0.356-0.114c-0.108-0.044-0.148-0.085-0.119-0.124
		c0.043-0.05,0.036-0.069-0.021-0.057l-0.26,0.057l0.021-0.057c0.087-0.102,0.036-0.114-0.15-0.038
		c-0.102,0.025-0.288,0.107-0.562,0.247c-0.346,0.164-0.54,0.247-0.584,0.247c-0.043-0.025-0.058-0.007-0.043,0.057
		c0.029,0.088,0.043,0.139,0.043,0.152c0,0.012-0.036,0.006-0.107-0.019c-0.043-0.013-0.068-0.016-0.076-0.009
		c-0.007,0.006-0.011,0.041-0.011,0.104l-0.777,0.455c-0.072-0.063-0.107-0.063-0.107,0c0,0.013-0.059,0.035-0.174,0.066
		c-0.115,0.031-0.237,0.054-0.367,0.066c-0.129,0.012-0.209,0.025-0.237,0.038c-0.158,0.088-0.673,0.076-1.544-0.038
		s-1.307-0.221-1.307-0.322c0-0.025-0.195-0.076-0.584-0.152c-0.316-0.076-0.402-0.177-0.259-0.303
		c0.087-0.076,0.19-0.111,0.313-0.104c0.122,0.006,0.349,0.054,0.68,0.143c1.354,0.354,2.6,0.114,3.737-0.721
		c0.244-0.177,0.378-0.297,0.399-0.36c0.021-0.063-0.011-0.126-0.097-0.189c-0.13-0.114-0.166-0.202-0.108-0.266
		c0.043-0.038,0.054-0.057,0.032-0.057s-0.047,0.019-0.075,0.057c-0.058,0.038-0.245,0.007-0.563-0.095
		c-0.346-0.126-0.713-0.189-1.102-0.189c-0.359-0.025-0.604-0.076-0.734-0.152c-0.129-0.076-0.209-0.221-0.236-0.436
		c-0.044-0.228,0.071-0.423,0.345-0.588c0.202-0.126,0.399-0.351,0.595-0.673c0.193-0.322,0.291-0.553,0.291-0.692
		c0-0.076-0.111-0.12-0.335-0.133s-0.504-0.01-0.843,0.009c-0.338,0.019-0.669,0.044-0.993,0.076
		c-0.323,0.031-0.601,0.06-0.831,0.085l-0.367,0.057c-0.087,0.013-0.138,0.013-0.152,0c-0.014-0.013-0.014-0.044,0-0.095
		c0.029-0.051,0.037-0.079,0.022-0.085s-0.058,0.009-0.13,0.047c-0.26,0.114-0.576,0.063-0.95-0.152
		c-0.36-0.177-0.438-0.354-0.237-0.531c0.072-0.063,0.508-0.129,1.307-0.199c0.799-0.069,1.227-0.11,1.285-0.123
		c0.101-0.038,0.496-0.057,1.188-0.057c0.648,0.026,1.072-0.012,1.275-0.114c0.201-0.101,0.381-0.347,0.539-0.739
		c0.158-0.455,0.328-1.178,0.508-2.171c0.18-0.992,0.306-1.633,0.378-1.924C33.657,5.14,33.794,3.774,33.995,1.272z M34.881,10.828
		c0-0.063-0.036-0.101-0.107-0.114c-0.072-0.013-0.159-0.013-0.26,0s-0.201,0.032-0.302,0.057c-0.102,0.026-0.202,0.047-0.303,0.066
		s-0.159,0.029-0.173,0.029c-0.13,0.013-0.256,0.073-0.378,0.18c-0.123,0.108-0.184,0.231-0.184,0.37
		c-0.058,0.379-0.13,0.594-0.216,0.645c-0.043,0.013-0.064,0.063-0.064,0.151c0,0.089-0.029,0.158-0.087,0.209
		c-0.274,0.291,0.021,0.594,0.886,0.91l0.886,0.323c0.187-0.341,0.442-0.875,0.767-1.603c0.324-0.727,0.413-1.103,0.27-1.128
		c-0.028,0-0.051-0.012-0.064-0.038c-0.015-0.025-0.015-0.044,0-0.057c0.058-0.05,0.036-0.082-0.064-0.095
		c-0.245-0.05-0.411-0.019-0.497,0.095c-0.015,0.038-0.036,0.057-0.065,0.057C34.896,10.884,34.881,10.866,34.881,10.828z
		 M43.586,7.13c0-0.025,0.141-0.234,0.421-0.625c0.281-0.392,0.422-0.607,0.422-0.645c0-0.114-0.036-0.183-0.108-0.208
		c-0.072-0.025-0.155-0.019-0.248,0.019c-0.094,0.038-0.181,0.076-0.26,0.114s-0.118,0.044-0.118,0.019
		C43.68,5.829,43.665,5.848,43.65,5.86c-0.072,0.076-0.198,0.149-0.378,0.218c-0.18,0.07-0.349,0.104-0.508,0.104
		c-0.058-0.013-0.104-0.016-0.14-0.01c-0.036,0.006-0.055,0.016-0.055,0.028c0,0.013,0,0.032,0,0.057
		c0,0.038-0.043,0.044-0.129,0.019c-0.044-0.038-0.087-0.047-0.13-0.029c-0.043,0.019-0.064,0.042-0.064,0.066
		c0,0.051-0.098,0.076-0.292,0.076s-0.292,0.019-0.292,0.057c-0.014,0.051-0.075,0.038-0.184-0.038
		c-0.107-0.076-0.161-0.076-0.161,0c0.086,0.089,0.043,0.133-0.13,0.133c-0.403-0.025-0.728-0.145-0.973-0.36
		c-0.389-0.455-0.295-0.727,0.281-0.815c0.259-0.05,0.583-0.038,0.972,0.038c0.217,0.013,0.839-0.123,1.869-0.407
		c1.029-0.285,1.789-0.541,2.278-0.768c0.288-0.139,0.565-0.221,0.832-0.247c0.266-0.025,0.457,0.025,0.572,0.152
		c0.043,0.076,0.046,0.183,0.011,0.322c-0.036,0.139-0.101,0.272-0.194,0.398c-0.094,0.126-0.177,0.177-0.249,0.152
		c-0.014-0.038-0.028-0.044-0.043-0.019c-0.015,0.025-0.015,0.057,0,0.095c0.029,0.063-0.004,0.152-0.097,0.266
		c-0.094,0.114-0.213,0.237-0.356,0.37c-0.145,0.133-0.238,0.212-0.281,0.237c-0.029,0.025-0.111,0.101-0.248,0.228
		c-0.138,0.126-0.26,0.24-0.367,0.341c-0.108,0.102-0.162,0.184-0.162,0.247c0,0.063-0.072,0.158-0.216,0.285
		c-0.145,0.126-0.245,0.17-0.303,0.132C44.5,7.149,44.482,7.14,44.461,7.159S44.429,7.2,44.429,7.225
		c0.057,0.24,0.043,0.354-0.044,0.341c-0.015,0-0.036-0.006-0.064-0.019c-0.058-0.025-0.086-0.035-0.086-0.028
		s0.007,0.028,0.021,0.066c0.071,0.114,0.057,0.189-0.044,0.228c-0.101,0.063-0.15,0.165-0.15,0.303c0,0.139,0.05,0.266,0.15,0.379
		c0.202,0.228,0.364,0.357,0.486,0.389s0.429,0.041,0.918,0.028c2.895-0.126,4.472-0.088,4.73,0.114
		c0.115,0.088,0.094,0.234-0.064,0.436c-0.058,0.063-0.127,0.114-0.205,0.152c-0.08,0.038-0.119,0.063-0.119,0.076
		c0,0.013,0,0.088,0,0.228c0.043,0.102,0.047,0.165,0.011,0.189c-0.036,0.026-0.075,0.022-0.119-0.009
		c-0.043-0.031-0.072-0.016-0.086,0.047c-0.043,0.025-0.166,0.035-0.367,0.028c-0.202-0.006-0.433-0.025-0.691-0.057
		s-0.389-0.054-0.389-0.066s-0.062-0.013-0.184,0c-0.123,0.013-0.248,0.028-0.378,0.047s-0.202,0.016-0.216-0.01
		c-0.058-0.038-0.433-0.057-1.124-0.057c-0.69,0-1.065,0.019-1.123,0.057c-0.086,0.076-0.028,0.323,0.173,0.74
		c0.389,0.822,0.489,1.441,0.303,1.858c-0.029,0.114-0.072,0.275-0.13,0.483c-0.058,0.209-0.111,0.401-0.162,0.579
		s-0.101,0.344-0.151,0.502c-0.05,0.158-0.111,0.278-0.184,0.36c-0.071,0.083-0.137,0.111-0.194,0.085
		c-0.028-0.038-0.05-0.031-0.064,0.019c-0.043,0.165-0.094,0.247-0.151,0.247s-0.094,0.009-0.107,0.028
		c-0.015,0.019-0.015,0.041,0,0.066c0.043,0.05,0.028,0.161-0.044,0.332c-0.072,0.17-0.165,0.332-0.28,0.483
		c-0.115,0.151-0.194,0.215-0.237,0.189c-0.015-0.038-0.036-0.044-0.065-0.019s-0.043,0.063-0.043,0.114
		c0,0.114-0.036,0.171-0.108,0.171c-0.072,0.114-0.129,0.208-0.173,0.284c-0.043,0.076-0.086,0.133-0.129,0.171
		c-0.072,0.063-0.123,0.12-0.151,0.17c-0.029,0.05-0.043,0.091-0.043,0.123s-0.025,0.063-0.076,0.095
		c-0.051,0.031-0.133,0.072-0.248,0.123c-0.331,0.126-0.526,0.228-0.583,0.303c-0.145,0.139-0.332,0.202-0.562,0.19
		c-0.072-0.013-0.087-0.044-0.044-0.095c0.029-0.038,0.015-0.057-0.043-0.057c-0.188,0.012-0.28,0-0.28-0.038
		c0-0.038-0.274-0.189-0.821-0.455c-0.403-0.189-0.799-0.417-1.188-0.683c-0.044-0.038-0.098-0.079-0.162-0.123
		c-0.065-0.044-0.119-0.079-0.162-0.104s-0.079-0.038-0.108-0.038c-0.058,0-0.086-0.032-0.086-0.095c0-0.063-0.102-0.25-0.303-0.56
		c-0.202-0.31-0.295-0.502-0.28-0.578c0.043-0.139,0.15-0.199,0.323-0.18s0.288,0.111,0.346,0.275
		c0.202,0.316,0.587,0.623,1.156,0.919c0.568,0.297,1.068,0.446,1.501,0.446c0.359,0,0.799-0.304,1.317-0.91
		c0.519-0.607,0.907-1.276,1.166-2.01l0.367-1.043l-0.216-0.815c-0.086-0.379-0.188-0.727-0.302-1.043
		c-0.217-0.316-0.411-0.512-0.584-0.588c0,0.025-0.05-0.006-0.15-0.095c-0.072-0.05-0.108-0.05-0.108,0
		c0,0.038-0.188,0.085-0.562,0.142c-0.375,0.057-0.785,0.107-1.231,0.152s-0.713,0.098-0.799,0.161
		c-0.087,0.038-0.425,0.047-1.016,0.028s-0.958-0.06-1.102-0.123c-0.273-0.139-0.378-0.338-0.313-0.597
		c0.065-0.259,0.241-0.363,0.529-0.313c0.36,0.063,0.839,0.085,1.437,0.066s1.033-0.073,1.307-0.161
		c0.418-0.114,0.655-0.171,0.713-0.171c0.087,0,0.213-0.072,0.378-0.218c0.166-0.146,0.234-0.243,0.205-0.294
		c-0.071-0.101,0.047-0.354,0.356-0.758S43.586,7.194,43.586,7.13z"/>
</g>
<path fill-rule="evenodd" clip-rule="evenodd" fill="#87A623" d="M28.881,24.806c0.889,0.199,1.393,0.313,2.541,0.571
	c-2.057,1.773-3.674,3.166-5.272,4.544c-1.756-1.355-3.442-2.656-5.571-4.301c0.865-0.376,1.37-0.596,2.279-0.99
	c0.114-1.191,0.262-2.767,0.433-4.553c1.578,0,3.193,0,5.192,0C28.605,21.558,28.754,23.293,28.881,24.806z"/>
</svg>
