<?xml version="1.0" encoding="UTF-8" standalone="no"?>
<svg width="32px" height="32px" viewBox="0 0 32 32" version="1.1" xmlns="http://www.w3.org/2000/svg" xmlns:xlink="http://www.w3.org/1999/xlink" xmlns:sketch="http://www.bohemiancoding.com/sketch/ns">
    <!-- Generator: Sketch 3.2.2 (9983) - http://www.bohemiancoding.com/sketch -->
    <title>modal-page-right</title>
    <desc>Created with Sketch.</desc>
    <defs></defs>
    <g id="assets" stroke="none" stroke-width="1" fill="none" fill-rule="evenodd" sketch:type="MSPage">
        <g id="modal-page-right" sketch:type="MSArtboardGroup" fill="#714918">
            <g id="chevron-with-circle-right-2" sketch:type="MSLayerGroup">
                <path d="M17.6,16 L13.9168,11.9904 C13.6032,11.6736 13.6032,11.16 13.9168,10.8416 C14.2304,10.5264 14.7408,10.5264 15.0528,10.8416 L19.544,15.424 C19.8576,15.7424 19.8576,16.256 19.544,16.5712 L15.0528,21.1536 C14.7408,21.472 14.2304,21.4704 13.9168,21.1536 C13.6032,20.8384 13.6032,20.3248 13.9168,20.0064 L17.6,16 L17.6,16 Z M16,0.64 C24.4832,0.64 31.36,7.5168 31.36,16 C31.36,24.4848 24.4832,31.36 16,31.36 C7.5168,31.36 0.64,24.4848 0.64,16 C0.64,7.5168 7.5168,0.64 16,0.64 L16,0.64 Z M16,29.3664 C23.3808,29.3664 29.3664,23.3824 29.3664,16 C29.3664,8.6176 23.3808,2.6336 16,2.6336 C8.616,2.6336 2.6336,8.6176 2.6336,16 C2.632,23.3824 8.616,29.3664 16,29.3664 L16,29.3664 Z" id="Shape" sketch:type="MSShapeGroup"></path>
            </g>
        </g>
    </g>
</svg>