<?xml version="1.0" encoding="UTF-8" standalone="no"?>
<svg width="16px" height="16px" viewBox="0 0 16 16" version="1.1" xmlns="http://www.w3.org/2000/svg"
     xmlns:xlink="http://www.w3.org/1999/xlink" xmlns:sketch="http://www.bohemiancoding.com/sketch/ns">
  <!-- Generator: Sketch 3.2.2 (9983) - http://www.bohemiancoding.com/sketch -->
  <title>add</title>
  <desc>Created with Sketch.</desc>
  <defs></defs>
  <g id="Assets" stroke="none" stroke-width="1" fill="none" fill-rule="evenodd" sketch:type="MSPage">
    <g id="add" sketch:type="MSArtboardGroup" fill="#87A64B">
      <path
        d="M8,-5.32907052e-15 C3.58190476,-5.32907052e-15 2.13162821e-14,3.58190476 2.13162821e-14,8 C2.13162821e-14,12.4180952 3.58190476,16 8,16 C12.4180952,16 16,12.4180952 16,8 C16,3.58190476 12.4180952,-5.32907052e-15 8,-5.32907052e-15 L8,-5.32907052e-15 Z M12.7619048,8.95238095 L8.95238095,8.95238095 L8.95238095,12.7619048 L7.04761905,12.7619048 L7.04761905,8.95238095 L3.23809524,8.95238095 L3.23809524,7.04761905 L7.04761905,7.04761905 L7.04761905,3.23809524 L8.95238095,3.23809524 L8.95238095,7.04761905 L12.7619048,7.04761905 L12.7619048,8.95238095 L12.7619048,8.95238095 Z"
        id="study-add-word" sketch:type="MSShapeGroup"></path>
    </g>
  </g>
</svg>
