<?xml version="1.0" encoding="UTF-8" standalone="no"?>
<svg width="53px" height="53px" viewBox="0 0 53 53" version="1.1" xmlns="http://www.w3.org/2000/svg" xmlns:xlink="http://www.w3.org/1999/xlink" xmlns:sketch="http://www.bohemiancoding.com/sketch/ns">
    <!-- Generator: Sketch 3.2.2 (9983) - http://www.bohemiancoding.com/sketch -->
    <title>dashboard-goal-not-met</title>
    <desc>Created with Sketch.</desc>
    <defs></defs>
    <g id="assets" stroke="none" stroke-width="1" fill="none" fill-rule="evenodd" sketch:type="MSPage">
        <g id="dashboard-goal-not-met" sketch:type="MSArtboardGroup">
            <g id="star" sketch:type="MSLayerGroup">
                <path d="M34.1799552,19.5834677 L50.8008765,19.5834677 C53.01027,19.5834677 53.3667254,20.6612874 51.5968085,21.9910208 L37.974907,32.2251148 L42.944032,50.5447267 C43.5228954,52.6788154 42.5607004,53.3203375 40.8041656,51.9846451 L26.5000019,41.107569 L12.1984681,51.9846451 C10.4381129,53.3234888 9.4779698,52.6865759 10.0586277,50.5447267 L15.0250968,32.2251148 L1.40059176,21.9910208 C-0.369558976,20.6613659 -0.0106111564,19.5834677 2.19591129,19.5834677 L18.8168325,19.5834677 L25.1529039,1.83320913 C25.8968856,-0.251026664 27.102635,-0.251673479 27.846536,1.83320913 L34.1799552,19.5834677 Z" id="Shape" fill="#FBFAFC" sketch:type="MSShapeGroup"></path>
                <path d="M31.2251139,22.2441163 L39.9173923,22.2441163 C42.1253179,22.2441163 42.4754149,23.325819 40.7239447,24.6416934 L33.5604689,30.0235915 L36.2171306,39.8178735 C36.7949647,41.9481676 35.8339623,42.5881549 34.0774073,41.2524472 L26.4989888,35.4897171 L18.9219636,41.2524472 C17.1627165,42.5904482 16.205292,41.9461377 16.782267,39.8178735 L19.4375087,30.0235915 L12.2726638,24.6416934 C10.5098479,23.3175481 10.872067,22.2441163 13.0786062,22.2441163 L21.7708846,22.2441163 L25.1567509,12.7587429 C25.8980484,10.6820267 27.0975558,10.67608 27.8406648,12.7587429 L31.2251139,22.2441163 Z" id="Shape-12" fill="#EFEEF3" sketch:type="MSShapeGroup"></path>
            </g>
        </g>
    </g>
</svg>