<?xml version="1.0" encoding="UTF-8" standalone="no"?>
<svg width="17px" height="17px" viewBox="0 0 17 17" version="1.1" xmlns="http://www.w3.org/2000/svg"
     xmlns:xlink="http://www.w3.org/1999/xlink" xmlns:sketch="http://www.bohemiancoding.com/sketch/ns">
    <!-- Generator: Sketch 3.2.2 (9983) - http://www.bohemiancoding.com/sketch -->
    <title>list-settings</title>
    <desc>Created with Sketch.</desc>
    <defs></defs>
    <g id="Assets" stroke="none" stroke-width="1" fill="none" fill-rule="evenodd" sketch:type="MSPage">
        <g id="list-settings" sketch:type="MSArtboardGroup" fill="#9CA0A4">
            <path
                    d="M15.183,8.4 C15.183,7.351 15.829,6.525 16.8,5.957 C16.624,5.373 16.393,4.812 16.108,4.285 C15.019,4.57 14.138,4.144 13.397,3.402 C12.656,2.662 12.429,1.781 12.714,0.691 C12.187,0.406 11.626,0.173 11.042,2.42028619e-14 C10.474,0.97 9.447,1.615 8.4,1.615 C7.352,1.615 6.326,0.97 5.757,2.30926389e-14 C5.172,0.173 4.613,0.406 4.086,0.691 C4.371,1.781 4.145,2.662 3.402,3.402 C2.662,4.144 1.781,4.57 0.691,4.285 C0.406,4.812 0.174,5.373 2.33146835e-14,5.957 C0.97,6.525 1.615,7.351 1.615,8.4 C1.615,9.447 0.97,10.474 2.30926389e-14,11.043 C0.175,11.627 0.406,12.187 0.691,12.715 C1.781,12.43 2.662,12.656 3.402,13.397 C4.143,14.139 4.371,15.02 4.086,16.108 C4.613,16.393 5.173,16.626 5.758,16.801 C6.326,15.828 7.353,15.184 8.401,15.184 C9.448,15.184 10.475,15.829 11.044,16.801 C11.628,16.625 12.188,16.393 12.716,16.108 C12.431,15.02 12.657,14.139 13.399,13.397 C14.14,12.657 15.021,12.231 16.11,12.514 C16.395,11.987 16.627,11.428 16.802,10.842 C15.829,10.273 15.183,9.447 15.183,8.4 L15.183,8.4 Z M8.4,12.052 C6.382,12.052 4.747,10.417 4.747,8.4 C4.747,6.382 6.383,4.746 8.4,4.746 C10.418,4.746 12.052,6.383 12.052,8.4 C12.052,10.418 10.418,12.052 8.4,12.052 L8.4,12.052 Z"
                    id="Shape-6" sketch:type="MSShapeGroup"></path>
        </g>
    </g>
</svg>
