<?xml version="1.0" encoding="UTF-8" standalone="no"?>
<svg width="201px" height="250px" viewBox="0 0 201 250" version="1.1" xmlns="http://www.w3.org/2000/svg"
		 xmlns:xlink="http://www.w3.org/1999/xlink" xmlns:sketch="http://www.bohemiancoding.com/sketch/ns">
	<!-- Generator: Sketch 3.2.2 (9983) - http://www.bohemiancoding.com/sketch -->
	<title>list-photo</title>
	<desc>Created with Sketch.</desc>
	<defs></defs>
	<g id="Assets" stroke="none" stroke-width="1" fill="none" fill-rule="evenodd" sketch:type="MSPage">
		<g id="list-photo" sketch:type="MSArtboardGroup" transform="translate(0.597366, 0.000000)">
			<g sketch:type="MSLayerGroup" transform="translate(0.000000, 0.000000)">
				<rect id="Rectangle-163" fill="#EBEAF0" sketch:type="MSShapeGroup" x="0" y="0" width="200" height="250"></rect>
				<path
					d="M146,98.8569269 L146,166.95434 C146,170.388487 143.029795,172.026614 139.42875,174.585777 C136.5374,176.644949 132.857499,174.092365 132.857499,170.724007 L132.857499,104.185775 C132.857499,102.797643 132.371227,101.475299 130.794127,100.666104 C129.217027,99.8569083 79.9457916,73.9231818 79.9457916,73.9231818 C79.1506703,73.6271347 75.6810502,71.4363861 71.0548899,73.8179206 C66.6587235,76.0810362 64.2667883,78.5415166 63.6556621,79.6993898 L117.40849,109.185682 C118.834451,109.935668 119.714999,111.093541 119.714999,112.580355 L119.714999,183.644818 C119.714999,185.157948 118.781881,186.776339 117.290207,187.493431 C116.606797,187.835529 115.851103,188 115.101981,188 C114.214862,188 113.321172,187.782899 112.565478,187.315802 C111.152659,186.453976 61.4805782,155.961124 58.2015243,153.980898 C56.6244242,153.033547 54.7779029,151.092794 54.7384754,149.652032 L54.0024953,81.9822419 C54.0024953,80.6796346 53.8513566,78.3836248 55.9015867,75.1928949 C60.4817481,68.0614491 76.463029,59.9497584 84.5522381,64.1536273 L143.68692,94.1201732 C145.112881,94.8570016 146,96.3306583 146,98.8569269 L146,98.8569269 Z"
					id="Shape" opacity="0.1" fill="#8D8C90" sketch:type="MSShapeGroup"></path>
			</g>
		</g>
	</g>
</svg>
