<?xml version="1.0" encoding="UTF-8" standalone="no"?>
<svg width="20px" height="16px" viewBox="0 0 20 16" version="1.1" xmlns="http://www.w3.org/2000/svg"
		 xmlns:xlink="http://www.w3.org/1999/xlink" xmlns:sketch="http://www.bohemiancoding.com/sketch/ns">
	<!-- Generator: Sketch 3.2.2 (9983) - http://www.bohemiancoding.com/sketch -->
	<title>list-action-assign</title>
	<desc>Created with Sketch.</desc>
	<defs></defs>
	<g id="Assets" stroke="none" stroke-width="1" fill="none" fill-rule="evenodd" sketch:type="MSPage">
		<g id="list-action-assign" sketch:type="MSArtboardGroup" fill="#87A64B">
			<path
				d="M13.7811199,0 L5.81811995,0 C5.81811995,0 4.82211995,0 4.82211995,1 L14.7771199,1 C14.7771199,0 13.7811199,0 13.7811199,0 L13.7811199,0 Z M16.7681199,3 C16.7681199,2 15.7731199,2 15.7731199,2 L3.82711995,2 C3.82711995,2 2.83211995,2 2.83211995,3 L2.83211995,4 L16.7681199,4 L16.7681199,3 L16.7681199,3 Z M18.7581199,4 L18.1701199,3.408 L18.1701199,5 L1.43011995,5 L1.43011995,3.408 C1.43011995,3.408 1.43011995,3.408 0.84111995,4 C0.25211995,4.592 -0.16988005,4.75 0.0671199497,6 C0.30311995,7.246 1.44611995,14.076 1.61611995,15 C1.80211995,16.014 2.83311995,16 2.83311995,16 L16.7691199,16 C16.7691199,16 17.7991199,16.014 17.9861199,15 C18.1561199,14.076 19.2981199,7.246 19.5351199,6 C19.7701199,4.75 19.3481199,4.592 18.7581199,4 L18.7581199,4 Z M13.8001199,9.997 C13.8001199,10.551 13.3511199,11 12.7971199,11 L6.80311995,11 C6.24911995,11 5.80011995,10.551 5.80011995,9.997 L5.80011995,8 L6.80011995,8 L6.80011995,10 L12.8001199,10 L12.8001199,8 L13.8001199,8 L13.8001199,9.997 L13.8001199,9.997 Z"
				id="Shape-7" sketch:type="MSShapeGroup"></path>
		</g>
	</g>
</svg>
