<?xml version="1.0" encoding="UTF-8" standalone="no"?>
<svg width="13px" height="20px" viewBox="0 0 13 20" version="1.1" xmlns="http://www.w3.org/2000/svg"
     xmlns:xlink="http://www.w3.org/1999/xlink" xmlns:sketch="http://www.bohemiancoding.com/sketch/ns">
    <!-- Generator: Sketch 3.2.2 (9983) - http://www.bohemiancoding.com/sketch -->
    <title>list-reorder</title>
    <desc>Created with Sketch.</desc>
    <defs></defs>
    <g id="Assets" stroke="none" stroke-width="1" fill="none" fill-rule="evenodd" sketch:type="MSPage">
        <g id="list-reorder" sketch:type="MSArtboardGroup" fill="#9CA0A4">
            <g id="Shape-+-Shape" sketch:type="MSLayerGroup">
                <path
                        d="M3.001,7.8 C1.786,7.8 0.8,8.785 0.8,10 C0.8,11.215 1.786,12.2 3.001,12.2 C4.216,12.2 5.2,11.215 5.2,10 C5.2,8.785 4.216,7.8 3.001,7.8 L3.001,7.8 Z M3.001,5.2 C4.216,5.2 5.2,4.214 5.2,3 C5.2,1.786 4.216,0.8 3.001,0.8 C1.786,0.8 0.8,1.785 0.8,3 C0.8,4.215 1.786,5.2 3.001,5.2 L3.001,5.2 Z M3.001,14.8 C1.786,14.8 0.8,15.785 0.8,17 C0.8,18.215 1.786,19.2 3.001,19.2 C4.216,19.2 5.2,18.215 5.2,17 C5.2,15.785 4.216,14.8 3.001,14.8 L3.001,14.8 Z"
                        id="Shape" sketch:type="MSShapeGroup"></path>
                <path
                        d="M10.001,7.8 C8.786,7.8 7.8,8.785 7.8,10 C7.8,11.215 8.786,12.2 10.001,12.2 C11.216,12.2 12.2,11.215 12.2,10 C12.2,8.785 11.216,7.8 10.001,7.8 L10.001,7.8 Z M10.001,5.2 C11.216,5.2 12.2,4.214 12.2,3 C12.2,1.786 11.216,0.8 10.001,0.8 C8.786,0.8 7.8,1.785 7.8,3 C7.8,4.215 8.786,5.2 10.001,5.2 L10.001,5.2 Z M10.001,14.8 C8.786,14.8 7.8,15.785 7.8,17 C7.8,18.215 8.786,19.2 10.001,19.2 C11.216,19.2 12.2,18.215 12.2,17 C12.2,15.785 11.216,14.8 10.001,14.8 L10.001,14.8 Z"
                        id="Shape" sketch:type="MSShapeGroup"></path>
            </g>
        </g>
    </g>
</svg>
