<?xml version="1.0" encoding="UTF-8" standalone="no"?>
<svg width="32px" height="32px" viewBox="0 0 32 32" version="1.1" xmlns="http://www.w3.org/2000/svg"
     xmlns:xlink="http://www.w3.org/1999/xlink" xmlns:sketch="http://www.bohemiancoding.com/sketch/ns">
  <!-- Generator: Sketch 3.2.2 (9983) - http://www.bohemiancoding.com/sketch -->
  <title>list-grid-off</title>
  <desc>Created with Sketch.</desc>
  <defs></defs>
  <g id="Assets" stroke="none" stroke-width="1" fill="none" fill-rule="evenodd" sketch:type="MSPage">
    <g id="list-grid-off" sketch:type="MSArtboardGroup" fill="#EBEAF0">
      <path
        d="M10.6666667,0 L2.66666667,0 C1.192,0 0,1.192 0,2.66666667 L0,10.6666667 C0,12.1386667 1.192,13.3333333 2.66666667,13.3333333 L10.6666667,13.3333333 C12.1413333,13.3333333 13.3333333,12.1386667 13.3333333,10.6666667 L13.3333333,2.66666667 C13.3333333,1.19466667 12.1413333,0 10.6666667,0 L10.6666667,0 Z M29.3333333,0 L21.3333333,0 C19.8586667,0 18.6666667,1.192 18.6666667,2.66666667 L18.6666667,10.6666667 C18.6666667,12.1386667 19.8586667,13.3333333 21.3333333,13.3333333 L29.3333333,13.3333333 C30.808,13.3333333 32,12.1386667 32,10.6666667 L32,2.66666667 C32,1.19466667 30.808,0 29.3333333,0 L29.3333333,0 Z M10.6666667,18.6666667 L2.66666667,18.6666667 C1.192,18.6666667 0,19.8586667 0,21.3333333 L0,29.3333333 C0,30.8053333 1.192,32 2.66666667,32 L10.6666667,32 C12.1413333,32 13.3333333,30.8053333 13.3333333,29.3333333 L13.3333333,21.3333333 C13.3333333,19.8613333 12.1413333,18.6666667 10.6666667,18.6666667 L10.6666667,18.6666667 Z M29.3333333,18.6666667 L21.3333333,18.6666667 C19.8586667,18.6666667 18.6666667,19.8586667 18.6666667,21.3333333 L18.6666667,29.3333333 C18.6666667,30.8053333 19.8586667,32 21.3333333,32 L29.3333333,32 C30.808,32 32,30.8053333 32,29.3333333 L32,21.3333333 C32,19.8613333 30.808,18.6666667 29.3333333,18.6666667 L29.3333333,18.6666667 Z"
        id="Shape-11" sketch:type="MSShapeGroup"></path>
    </g>
  </g>
</svg>
