<?xml version="1.0" encoding="UTF-8" standalone="no"?>
<svg width="16px" height="20px" viewBox="0 0 16 20" version="1.1" xmlns="http://www.w3.org/2000/svg"
		 xmlns:xlink="http://www.w3.org/1999/xlink" xmlns:sketch="http://www.bohemiancoding.com/sketch/ns">
	<!-- Generator: Sketch 3.2.2 (9983) - http://www.bohemiancoding.com/sketch -->
	<title>list-action-publish</title>
	<desc>Created with Sketch.</desc>
	<defs></defs>
	<g id="Assets" stroke="none" stroke-width="1" fill="none" fill-rule="evenodd" sketch:type="MSPage">
		<g id="list-action-publish" sketch:type="MSArtboardGroup" fill="#87A64B">
			<path
				d="M7,13 L9,13 L9,4 L11,4 L8,0 L5,4 L7,4 L7,13 L7,13 Z M15,7 L12,7 L12,9 L14,9 L14,18 L2,18 L2,9 L4,9 L4,7 L1,7 C0.447,7 0,7.447 0,8 L0,19 C0,19.552 0.447,20 1,20 L15,20 C15.553,20 16,19.552 16,19 L16,8 C16,7.448 15.553,7 15,7 L15,7 Z"
				id="Shape-3" sketch:type="MSShapeGroup"></path>
		</g>
	</g>
</svg>
