<?xml version="1.0" encoding="UTF-8" standalone="no"?>
<svg width="28px" height="44px" viewBox="0 0 28 44" version="1.1" xmlns="http://www.w3.org/2000/svg"
     xmlns:xlink="http://www.w3.org/1999/xlink" xmlns:sketch="http://www.bohemiancoding.com/sketch/ns">
  <!-- Generator: Sketch 3.3 (11970) - http://www.bohemiancoding.com/sketch -->
  <title>marketing-android</title>
  <desc>Created with Sketch.</desc>
  <defs></defs>
  <g id="assets" stroke="none" stroke-width="1" fill="none" fill-rule="evenodd" sketch:type="MSPage">
    <g id="marketing-android" sketch:type="MSArtboardGroup" fill="#EAEAEA" opacity="0.599999964">
      <g id="Android-+-Shape" sketch:type="MSLayerGroup">
        <path
          d="M22,0 L6,0 C2.69,0 0,2.69 0,6 L0,38 C0,41.31 2.69,44 6,44 L22,44 C25.31,44 28,41.31 28,38 L28,6 C28,2.69 25.31,0 22,0 L22,0 Z M18,40 L10,40 L10,38 L18,38 L18,40 L18,40 Z M24.5,34 L3.5,34 L3.5,6 L24.5,6 L24.5,34 L24.5,34 Z"
          id="Shape" sketch:type="MSShapeGroup"></path>
      </g>
    </g>
  </g>
</svg>
