<?xml version="1.0" encoding="utf-8"?>
<!-- Generator: Adobe Illustrator 16.0.0, SVG Export Plug-In . SVG Version: 6.00 Build 0)  -->
<!DOCTYPE svg PUBLIC "-//W3C//DTD SVG 1.1//EN" "http://www.w3.org/Graphics/SVG/1.1/DTD/svg11.dtd">
<svg version="1.1" id="Layer_1" xmlns:sketch="http://www.bohemiancoding.com/sketch/ns"
	 xmlns="http://www.w3.org/2000/svg" xmlns:xlink="http://www.w3.org/1999/xlink" x="0px" y="0px" width="52px" height="50px"
	 viewBox="0 0 52 50" enable-background="new 0 0 52 50" xml:space="preserve">
<g>
	<path d="M26.688,40.12"/>
</g>
<g>
	<path d="M29.262,41.234"/>
</g>
<g enable-background="new    ">
	<path fill="#87A623" d="M14.595,15.232c0.608-0.203,1.048-0.304,1.318-0.304c1.623,0.389,2.435,0.727,2.435,1.014
		c0,0.169-0.068,0.44-0.203,0.812c-0.068,1.353-0.101,2.84-0.101,4.462c0,3.313,0.101,7.1,0.304,11.359
		c-0.254,2.096-0.626,3.145-1.116,3.145c-0.203,0-0.575-0.574-1.116-1.725c-0.778-0.371-1.488-0.574-2.13-0.608
		c-3.28,0.118-6.999,0.457-11.157,1.015c-0.085,0.473-0.288,0.71-0.608,0.71c-0.558,0-1.065-0.812-1.521-2.435
		c0.27-2.266,0.406-5.308,0.406-9.128v-5.68c-0.034-0.237-0.102-0.44-0.203-0.608c-0.203-0.203-0.304-0.372-0.304-0.507L0.7,16.55
		c0.642,0.034,1.183,0.169,1.623,0.406C5.804,16.517,9.895,15.942,14.595,15.232z M16.319,32.271v-4.666
		c0-4.293-0.068-7.911-0.203-10.852c0-0.372-0.203-0.574-0.609-0.608c-3.195,0.253-7.185,0.76-11.968,1.521H2.728
		c0.067,0.136,0.102,0.271,0.102,0.406v15.417c3.837-0.456,7.353-0.997,10.548-1.623c0.913,0,1.657,0.271,2.231,0.812
		C16.082,32.677,16.319,32.541,16.319,32.271z M11.451,18.681c1.352,0.084,2.028,0.355,2.028,0.811c0,0.321-0.203,0.491-0.608,0.507
		c-1.217,0.051-2.4,0.186-3.55,0.406c0.287,0.219,0.49,0.49,0.608,0.811l-0.102,2.637c0.305-0.034,0.609-0.102,0.913-0.203
		c0.203-0.27,0.372-0.406,0.507-0.406c1.285,0.203,1.927,0.507,1.927,0.913c0,0.237-0.169,0.372-0.507,0.406
		c-1.014,0.066-1.961,0.168-2.84,0.304l-0.101,3.956c0.744-0.085,1.487-0.22,2.231-0.406c0.237-0.202,0.439-0.304,0.609-0.304
		c1.284,0.253,1.927,0.592,1.927,1.014c0,0.339-0.203,0.508-0.608,0.508c-1.589,0-2.84,0.066-3.752,0.202
		c-1.775,0.254-3.432,0.558-4.97,0.913c-0.473-0.152-0.845-0.39-1.116-0.71l0.102-0.203c1.454-0.253,2.772-0.49,3.956-0.71v-3.955
		c-0.879,0.136-1.657,0.27-2.333,0.405c-0.406-0.102-0.778-0.27-1.116-0.507l0.101-0.203c1.149-0.27,2.265-0.507,3.347-0.71v-2.637
		c0-0.339-0.068-0.643-0.203-0.913c-0.677,0.118-1.353,0.254-2.029,0.406c-0.507-0.118-0.947-0.321-1.318-0.608l0.102-0.203
		c2.113-0.27,4.209-0.676,6.288-1.217C11.112,18.782,11.281,18.681,11.451,18.681z M13.276,25.78c0.473,0.574,0.71,1.081,0.71,1.521
		c0,0.338-0.136,0.507-0.406,0.507c-0.575,0-1.318-0.71-2.231-2.13l0.203-0.203C12.6,25.561,13.175,25.662,13.276,25.78z"/>
</g>
<g enable-background="new    ">
	<path fill="#87A623" d="M31.982,4.665c0.457,0.035,0.949,0.176,1.477,0.422c0.299,0.07,0.615,0.105,0.949,0.105
		c5.063-0.51,9.176-1.037,12.34-1.582c0.563-0.123,1.09-0.299,1.582-0.527c1.969,1.02,2.953,1.723,2.953,2.109
		c0,0.211-0.246,0.492-0.738,0.844c-0.879,2.654-1.758,5.256-2.637,7.805c0.07,0.07,0.105,0.211,0.105,0.422
		c0,0.334-0.422,0.51-1.266,0.527c-3.99,0-7.33,0.281-10.02,0.844c-0.018,0.492-0.158,0.738-0.422,0.738
		c-0.633,0-1.16-0.422-1.582-1.266c-0.563-3.023-1.195-5.906-1.898-8.648c-0.123-0.176-0.299-0.422-0.527-0.738
		c-0.352-0.316-0.527-0.598-0.527-0.844L31.982,4.665z M34.725,6.352c0.598,2.742,1.266,5.484,2.004,8.227
		c3.164-0.598,6.328-1.125,9.492-1.582c0.563-2.496,1.125-5.063,1.688-7.699l-0.211-0.316C43.285,5.403,38.961,5.86,34.725,6.352z"
		/>
</g>
<g enable-background="new    ">
	<path fill="#91A623" d="M50.809,44.414c0,0.287-0.201,0.43-0.602,0.43c-3.753,0-6.561,0.086-8.422,0.258
		c-2.75,0.244-5.472,0.702-8.164,1.375c-0.573-0.301-1.031-0.559-1.375-0.773l0.086-0.172c2.291-0.458,4.927-0.916,7.906-1.375
		v-6.016c-1.117,0.187-2.12,0.416-3.008,0.688c-0.616-0.286-1.046-0.516-1.289-0.688l0.086-0.172
		c1.317-0.271,2.721-0.559,4.211-0.859l-0.086-3.953c-0.086-0.357-0.258-0.645-0.516-0.859c-0.945,0.172-1.862,0.373-2.75,0.602
		c-0.659-0.2-1.117-0.4-1.375-0.602l0.086-0.172c3.165-0.615,5.743-1.131,7.734-1.547c0.344-0.114,0.602-0.286,0.773-0.516
		c1.489,0.187,2.234,0.588,2.234,1.203c0,0.229-0.315,0.344-0.945,0.344c-0.831,0-2.12,0.115-3.867,0.344
		c0.415,0.287,0.673,0.573,0.773,0.859l-0.172,3.867c0.544-0.086,0.916-0.172,1.117-0.258c0.344-0.114,0.602-0.286,0.773-0.516
		c1.604,0.258,2.406,0.659,2.406,1.203c0,0.287-0.401,0.43-1.203,0.43c-0.53,0-1.562,0.086-3.094,0.258l-0.172,6.102
		c1.689-0.2,3.322-0.372,4.898-0.516c0.486-0.086,0.888-0.286,1.203-0.602C49.892,43.24,50.809,43.784,50.809,44.414z
		 M47.285,39.688c0.458,0.545,0.688,1.003,0.688,1.375c0,0.401-0.172,0.602-0.516,0.602c-0.201,0-0.487-0.086-0.859-0.258
		c-0.602-0.271-1.375-1.017-2.32-2.234L44.363,39C46.096,39.201,47.07,39.43,47.285,39.688z"/>
</g>
<g>
	<path d="M27.975,35.364"/>
</g>
<g>
	<path d="M22.618,40.678"/>
</g>
<g>
	<g>
		<path d="M26.452,14.372c-1.97,1.683-2.767,2.365-4.68,4"/>
		<path fill="#87A623" d="M21.772,19.372c-0.282,0-0.563-0.119-0.761-0.35c-0.359-0.42-0.309-1.051,0.11-1.41l4.681-4
			c0.42-0.361,1.051-0.309,1.41,0.111c0.358,0.42,0.309,1.051-0.111,1.41l-4.68,4C22.233,19.293,22.002,19.372,21.772,19.372z"/>
	</g>
	<g>
		<path d="M21.772,31.371c1.561,1.334,3.119,2.668,4.681,4"/>
		<path fill="#87A623" d="M26.453,36.371c-0.229,0-0.46-0.078-0.648-0.239l-4.682-4.001c-0.42-0.358-0.47-0.989-0.111-1.409
			s0.992-0.47,1.41-0.11l4.68,3.999c0.421,0.358,0.471,0.989,0.112,1.409C27.017,36.252,26.735,36.371,26.453,36.371z"/>
	</g>
	<g>
		<path fill="#87A623" d="M23.739,11.73c1.356,1.321,2.713,2.642,4.07,3.963c0.453,0.44,0.903,0.88,1.354,1.32
			c0-1.761,0-3.522,0-5.283"/>
	</g>
	<g>
		<polyline fill="#87A623" points="28.688,32.473 23.816,38.27 29.087,37.881 		"/>
	</g>
</g>
</svg>
