<?xml version="1.0" encoding="utf-8"?>
<!-- Generator: Adobe Illustrator 16.0.0, SVG Export Plug-In . SVG Version: 6.00 Build 0)  -->
<!DOCTYPE svg PUBLIC "-//W3C//DTD SVG 1.1//EN" "http://www.w3.org/Graphics/SVG/1.1/DTD/svg11.dtd">
<svg version="1.1" id="Layer_1" xmlns:sketch="http://www.bohemiancoding.com/sketch/ns"
	 xmlns="http://www.w3.org/2000/svg" xmlns:xlink="http://www.w3.org/1999/xlink" x="0px" y="0px" width="52px" height="50px"
	 viewBox="0 0 52 50" enable-background="new 0 0 52 50" xml:space="preserve">
<polyline fill="#87A623" points="8.142,32.941 8.07,21.594 12.119,23.912 12.119,35.744 "/>
<polyline fill="#87A623" points="12.613,23.94 14.035,22.833 14.035,34.27 12.613,35.297 "/>
<polyline fill="#87A623" points="14.035,36.689 14.035,16.197 18.634,18.911 18.634,39.689 "/>
<polyline fill="#87A623" points="19.115,19.072 22.012,16.917 22.417,37.588 19.115,39.842 "/>
<polyline fill="#87A623" points="20.563,40.338 20.563,4.842 25.534,7.358 25.534,43.505 "/>
<polyline fill="#87A623" points="26.037,43.505 26.037,7.43 30.75,4.337 30.719,39.125 "/>
<polyline fill="#87A623" points="32.503,47.172 32.503,21.318 27.917,18.785 27.917,44.712 "/>
<polyline fill="#87A623" points="32.917,47.004 33.079,21.306 37.823,18.616 37.823,42.893 "/>
<polyline fill="#87A623" points="34.948,47.027 34.948,30.498 39.259,33.445 39.259,49.4 "/>
<polyline fill="#87A623" points="39.763,49.4 39.762,33.438 43.644,30.498 43.644,46.525 "/>
<polyline fill="#87A623" points="12.383,23.6 8.07,21.12 11.388,18.516 15.784,21 "/>
<polyline fill="#87A623" points="18.888,18.625 14.346,15.863 18.692,13.177 23.104,15.759 "/>
<polyline fill="#87A623" points="20.93,4.587 25.824,7 30.719,3.734 25.784,1.25 "/>
<polyline fill="#87A623" points="32.813,20.969 37.493,18.356 32.733,15.754 28.378,18.616 "/>
<polyline fill="#87A623" points="39.529,33.078 43.35,30.111 39.438,27.785 35.63,30.498 "/>
<image overflow="visible" width="50" height="50" xlink:href="206064B4.jpg"  transform="matrix(0.7499 0 0 0.7499 66.667 1.5029)">
</image>
</svg>
