<?xml version="1.0" encoding="UTF-8" standalone="no"?>
<svg width="48px" height="48px" viewBox="0 0 48 48" version="1.1" xmlns="http://www.w3.org/2000/svg"
		 xmlns:xlink="http://www.w3.org/1999/xlink" xmlns:sketch="http://www.bohemiancoding.com/sketch/ns">
	<!-- Generator: Sketch 3.3 (11970) - http://www.bohemiancoding.com/sketch -->
	<title>marketing-users</title>
	<desc>Created with Sketch.</desc>
	<defs>
		<filter x="-50%" y="-50%" width="200%" height="200%" filterUnits="objectBoundingBox" id="filter-1">
			<feOffset dx="1" dy="1" in="SourceAlpha" result="shadowOffsetOuter1"></feOffset>
			<feGaussianBlur stdDeviation="0" in="shadowOffsetOuter1" result="shadowBlurOuter1"></feGaussianBlur>
			<feColorMatrix values="0 0 0 0 1   0 0 0 0 1   0 0 0 0 1  0 0 0 0.7 0" in="shadowBlurOuter1" type="matrix"
										 result="shadowMatrixOuter1"></feColorMatrix>
			<feOffset dx="1" dy="1" in="SourceAlpha" result="shadowOffsetInner1"></feOffset>
			<feGaussianBlur stdDeviation="0" in="shadowOffsetInner1" result="shadowBlurInner1"></feGaussianBlur>
			<feComposite in="shadowBlurInner1" in2="SourceAlpha" operator="arithmetic" k2="-1" k3="1"
									 result="shadowInnerInner1"></feComposite>
			<feColorMatrix values="0 0 0 0 0   0 0 0 0 0   0 0 0 0 0  0 0 0 0.035 0" in="shadowInnerInner1" type="matrix"
										 result="shadowMatrixInner1"></feColorMatrix>
			<feMerge>
				<feMergeNode in="shadowMatrixOuter1"></feMergeNode>
				<feMergeNode in="SourceGraphic"></feMergeNode>
				<feMergeNode in="shadowMatrixInner1"></feMergeNode>
			</feMerge>
		</filter>
	</defs>
	<g id="assets" stroke="none" stroke-width="1" fill="none" fill-rule="evenodd" sketch:type="MSPage">
		<g id="marketing-users" sketch:type="MSArtboardGroup" filter="url(#filter-1)" fill="#87A64B">
			<g id="users" sketch:type="MSLayerGroup">
				<path
					d="M38.3736,45.9096 C38.3736,40.5192 33.1248,37.776 28.0128,35.5728 C22.9176,33.3792 21.2904,31.5312 21.2904,27.5712 C21.2904,25.1976 22.8456,25.9704 23.5272,21.6168 C23.8152,19.812 25.188,21.588 25.452,17.4672 C25.452,15.8256 24.7008,15.4176 24.7008,15.4176 C24.7008,15.4176 25.0824,12.9864 25.2312,11.1144 C25.3848,9.1536 24.276,4.9704 19.7088,3.6864 C18.912,2.868 18.372,1.5696 20.8296,0.2688 C15.4536,0.0192 14.2032,2.832 11.34,4.9008 C8.904,6.7152 8.2464,9.588 8.364,11.1168 C8.52,12.9888 8.8992,15.42 8.8992,15.42 C8.8992,15.42 8.1456,15.828 8.1456,17.4696 C8.4096,21.5928 9.7872,19.8144 10.0728,21.6192 C10.7544,25.9728 12.312,25.2 12.312,27.5736 C12.312,31.5336 11.8032,32.8776 6.7056,35.0712 C1.5912,37.272 0,40.8 0.0264,45.9096 C0.0336,47.4384 0,48 0,48 L38.4,48 C38.4,48 38.3736,47.4384 38.3736,45.9096 L38.3736,45.9096 Z M44.4672,32.076 C41.7432,30.9792 40.6152,29.6712 40.6152,27.1176 C40.6152,25.5792 41.6184,26.0808 42.06,23.2704 C42.2448,22.1088 43.1328,23.2512 43.3032,20.5944 C43.3032,19.536 42.8184,19.272 42.8184,19.272 C42.8184,19.272 43.0656,17.6976 43.1616,16.4904 C43.2816,14.9856 42.288,11.0976 37.7184,11.0976 C33.1512,11.0976 32.1552,14.9856 32.2728,16.4904 C32.3736,17.6952 32.6184,19.272 32.6184,19.272 C32.6184,19.272 32.1336,19.5336 32.1336,20.5944 C32.304,23.2512 33.192,22.1088 33.3768,23.2704 C33.8184,26.0832 34.8216,25.5816 34.8216,27.1176 C34.8216,29.6712 33.7704,30.8664 30.48,32.2824 C30.3144,32.352 30.192,32.4456 30.0408,32.5272 C33.9768,34.236 40.1832,37.1856 41.652,43.2 L48,43.2 L48,37.6368 C48,35.2368 47.3448,33.2352 44.4672,32.076 L44.4672,32.076 Z"
					id="Shape" sketch:type="MSShapeGroup"></path>
			</g>
		</g>
	</g>
</svg>
