<?xml version="1.0" encoding="UTF-8" standalone="no"?>
<svg width="55px" height="46px" viewBox="0 0 55 46" version="1.1" xmlns="http://www.w3.org/2000/svg"
     xmlns:xlink="http://www.w3.org/1999/xlink" xmlns:sketch="http://www.bohemiancoding.com/sketch/ns">
  <!-- Generator: Sketch 3.3 (11970) - http://www.bohemiancoding.com/sketch -->
  <title>marketing-progress</title>
  <desc>Created with Sketch.</desc>
  <defs>
    <filter x="-50%" y="-50%" width="200%" height="200%" filterUnits="objectBoundingBox" id="filter-1">
      <feOffset dx="1" dy="1" in="SourceAlpha" result="shadowOffsetOuter1"></feOffset>
      <feGaussianBlur stdDeviation="0" in="shadowOffsetOuter1" result="shadowBlurOuter1"></feGaussianBlur>
      <feColorMatrix values="0 0 0 0 1   0 0 0 0 1   0 0 0 0 1  0 0 0 0.7 0" in="shadowBlurOuter1" type="matrix"
                     result="shadowMatrixOuter1"></feColorMatrix>
      <feOffset dx="1" dy="1" in="SourceAlpha" result="shadowOffsetInner1"></feOffset>
      <feGaussianBlur stdDeviation="0" in="shadowOffsetInner1" result="shadowBlurInner1"></feGaussianBlur>
      <feComposite in="shadowBlurInner1" in2="SourceAlpha" operator="arithmetic" k2="-1" k3="1"
                   result="shadowInnerInner1"></feComposite>
      <feColorMatrix values="0 0 0 0 0   0 0 0 0 0   0 0 0 0 0  0 0 0 0.035 0" in="shadowInnerInner1"
                     type="matrix"
                     result="shadowMatrixInner1"></feColorMatrix>
      <feMerge>
        <feMergeNode in="shadowMatrixOuter1"></feMergeNode>
        <feMergeNode in="SourceGraphic"></feMergeNode>
        <feMergeNode in="shadowMatrixInner1"></feMergeNode>
      </feMerge>
    </filter>
  </defs>
  <g id="assets" stroke="none" stroke-width="1" fill="none" fill-rule="evenodd" sketch:type="MSPage">
    <g id="marketing-progress" sketch:type="MSArtboardGroup" filter="url(#filter-1)" fill="#87A64B">
      <g id="line-graph" sketch:type="MSLayerGroup">
        <path
          d="M2.53227273,26.5493333 L6.18759091,27.4506667 L8.93913636,23.1546667 L3.70959091,21.8693333 C2.40086364,21.5466667 1.07872727,22.3333333 0.754227273,23.6293333 C0.429727273,24.9173333 1.22354545,26.224 2.53227273,26.5493333 L2.53227273,26.5493333 Z M50.2445,27.2453333 L38.2755455,37.9546667 L24.2040455,27.1253333 C23.9358636,26.9226667 23.6274545,26.7706667 23.2975909,26.6933333 L21.4256818,26.2293333 L18.6714545,30.5253333 L21.6214545,31.2533333 L36.8997727,43.008 C37.3449545,43.3466667 37.8705909,43.512 38.3989091,43.512 C38.9862273,43.512 39.5735455,43.304 40.0321364,42.8933333 L53.5163182,30.8213333 C54.5139545,29.9306667 54.5917273,28.4053333 53.6879545,27.416 C52.7841818,26.4293333 51.2448182,26.3493333 50.2445,27.2453333 L50.2445,27.2453333 Z M23.9707273,15.48 L37.0767727,23.824 C38.1843636,24.528 39.654,24.2346667 40.4022273,23.168 L53.8837273,3.856 C54.6507273,2.75733333 54.3745,1.25066667 53.2642273,0.496 C52.1539545,-0.264 50.6387273,0.0106666667 49.8717273,1.10933333 L37.7284545,18.4986667 L24.5446364,10.1066667 C23.9975455,9.75733333 23.3351364,9.64266667 22.6995455,9.77866667 C22.0666364,9.92 21.5141818,10.304 21.1682273,10.8453333 L1.06263636,42.224 C0.338545455,43.3493333 0.676454545,44.8453333 1.81354545,45.5573333 C2.21581818,45.8133333 2.66904545,45.9333333 3.11690909,45.9333333 C3.92413636,45.9333333 4.71527273,45.536 5.17654545,44.8133333 L23.9707273,15.48 L23.9707273,15.48 Z"
          id="Shape" sketch:type="MSShapeGroup"></path>
      </g>
    </g>
  </g>
</svg>
