<?xml version="1.0" encoding="UTF-8" standalone="no"?>
<svg viewBox="0 0 49 41" version="1.1" xmlns="http://www.w3.org/2000/svg"
     xmlns:xlink="http://www.w3.org/1999/xlink" xmlns:sketch="http://www.bohemiancoding.com/sketch/ns">
  <!-- Generator: Sketch 3.3 (11970) - http://www.bohemiancoding.com/sketch -->
  <title>marketing-plane</title>
  <desc>Created with Sketch.</desc>
  <defs>
    <filter x="-50%" y="-50%" width="200%" height="200%" filterUnits="objectBoundingBox" id="filter-1">
      <feOffset dx="1" dy="1" in="SourceAlpha" result="shadowOffsetOuter1"></feOffset>
      <feGaussianBlur stdDeviation="0" in="shadowOffsetOuter1" result="shadowBlurOuter1"></feGaussianBlur>
      <feColorMatrix values="0 0 0 0 1   0 0 0 0 1   0 0 0 0 1  0 0 0 0.7 0" in="shadowBlurOuter1" type="matrix"
                     result="shadowMatrixOuter1"></feColorMatrix>
      <feOffset dx="1" dy="1" in="SourceAlpha" result="shadowOffsetInner1"></feOffset>
      <feGaussianBlur stdDeviation="0" in="shadowOffsetInner1" result="shadowBlurInner1"></feGaussianBlur>
      <feComposite in="shadowBlurInner1" in2="SourceAlpha" operator="arithmetic" k2="-1" k3="1"
                   result="shadowInnerInner1"></feComposite>
      <feColorMatrix values="0 0 0 0 0   0 0 0 0 0   0 0 0 0 0  0 0 0 0.035 0" in="shadowInnerInner1"
                     type="matrix"
                     result="shadowMatrixInner1"></feColorMatrix>
      <feMerge>
        <feMergeNode in="shadowMatrixOuter1"></feMergeNode>
        <feMergeNode in="SourceGraphic"></feMergeNode>
        <feMergeNode in="shadowMatrixInner1"></feMergeNode>
      </feMerge>
    </filter>
  </defs>
  <g id="assets" stroke="none" stroke-width="1" fill="none" fill-rule="evenodd" sketch:type="MSPage">
    <g id="marketing-plane" sketch:type="MSArtboardGroup" filter="url(#filter-1)" fill="#87A64B">
      <path
        d="M24.7644195,23.3435141 C21.9912783,25.2200112 18.8963219,26.9972093 15.9346172,28.252451 C15.0144271,31.5114962 13.1841036,37.6960438 12.299112,38.5209897 C10.7805469,39.9391836 10.2073137,39.7558623 9.97349495,37.8106197 C9.73967616,35.865377 8.75411736,29.5713459 8.75411736,29.5713459 C8.75411736,29.5713459 3.31845888,26.4676145 1.61384443,25.5790154 C-0.0907700249,24.6904164 -0.0631140382,24.0742531 1.75715272,23.0990857 C2.81813694,22.5312989 9.11615936,22.8826647 12.4223069,23.1118163 C14.5870164,20.6904476 17.2771896,18.3200014 19.9472494,16.2907365 C16.89252,13.5511015 9.5133999,6.933712 7.29086424,5.0266613 C5.33986009,3.35130835 7.48948451,2.99739641 7.48948451,2.99739641 C8.47001495,2.81916737 10.5618132,2.66130736 11.5825705,2.97448124 C17.9283624,4.91717775 27.778922,8.23987623 30.0944824,9.024084 C30.9819881,8.39009785 31.9474335,7.70009686 33.0159602,6.933712 C44.8376375,-1.54489792 47.8169415,0.331599233 48.3801179,1.15399893 C48.9432944,1.97639863 49.6447508,5.48496454 37.8230736,13.9661206 C36.7545468,14.7325054 35.7916156,15.4250526 34.9066241,16.0615848 C34.8337128,18.5567914 34.5118977,29.1766959 34.1247139,35.9493993 C34.0618594,37.0391425 33.2020096,38.9996619 32.7042018,39.8806226 C32.7016877,39.8806226 31.6407034,41.8284114 30.7733111,39.376489 C29.782724,36.5859316 26.2352151,27.2187226 24.7644195,23.3435141 Z"
        id="aircraft" sketch:type="MSShapeGroup"></path>
    </g>
  </g>
</svg>
