<?xml version="1.0" encoding="UTF-8" standalone="no"?>
<svg width="26px" height="44px" viewBox="0 0 26 44" version="1.1" xmlns="http://www.w3.org/2000/svg"
		 xmlns:xlink="http://www.w3.org/1999/xlink" xmlns:sketch="http://www.bohemiancoding.com/sketch/ns">
	<!-- Generator: Sketch 3.3 (11970) - http://www.bohemiancoding.com/sketch -->
	<title>marketing-iphone</title>
	<desc>Created with Sketch.</desc>
	<defs></defs>
	<g id="assets" stroke="none" stroke-width="1" fill="none" fill-rule="evenodd" sketch:type="MSPage">
		<g id="marketing-iphone" sketch:type="MSArtboardGroup" fill="#EAEAEA" opacity="0.599999964">
			<g id="iOS-+-Shape" sketch:type="MSLayerGroup">
				<path
					d="M21,0 L5,0 C2.24,0 0,2.24 0,5 L0,39 C0,41.76 2.24,44 5,44 L21,44 C23.76,44 26,41.76 26,39 L26,5 C26,2.24 23.76,0 21,0 L21,0 Z M13,42 C11.34,42 10,40.66 10,39 C10,37.34 11.34,36 13,36 C14.66,36 16,37.34 16,39 C16,40.66 14.66,42 13,42 L13,42 Z M22,34 L4,34 L4,6 L22,6 L22,34 L22,34 Z"
					id="Shape" sketch:type="MSShapeGroup"></path>
			</g>
		</g>
	</g>
</svg>
