<?xml version="1.0" encoding="utf-8"?>
<!-- Generator: Adobe Illustrator 16.0.0, SVG Export Plug-In . SVG Version: 6.00 Build 0)  -->
<!DOCTYPE svg PUBLIC "-//W3C//DTD SVG 1.1//EN" "http://www.w3.org/Graphics/SVG/1.1/DTD/svg11.dtd">
<svg version="1.1" id="Layer_1" xmlns:sketch="http://www.bohemiancoding.com/sketch/ns"
	 xmlns="http://www.w3.org/2000/svg" xmlns:xlink="http://www.w3.org/1999/xlink" x="0px" y="0px"
	 viewBox="0 0 52 50" enable-background="new 0 0 52 50" xml:space="preserve">
<g id="Study-assets" sketch:type="MSPage">
	<g id="study-stroke-order" sketch:type="MSArtboardGroup">
		<g sketch:type="MSLayerGroup">
			<text transform="matrix(1 0 0 1 14 10)" fill="#87A64B" font-family="'ArialMT'" font-size="10">1</text>
			<text transform="matrix(1 0 0 1 9 21)" fill="#87A64B" font-family="'ArialMT'" font-size="10">2</text>
			<text transform="matrix(1 0 0 1 0 38)" fill="#87A64B" font-family="'ArialMT'" font-size="10">3</text>
			<text transform="matrix(1 0 0 1 43 18)" fill="#87A64B" font-family="'ArialMT'" font-size="10">4</text>
			<text transform="matrix(1 0 0 1 42 34)" fill="#87A64B" font-family="'ArialMT'" font-size="10">5</text>
			<path id="永" sketch:type="MSShapeGroup" fill="#87A64B" d="M29.536,9.08c-0.156-2.704-2.548-4.108-6.396-4.056
				c-1.664,0-1.716,0.364-0.936,1.352c1.196,1.56,3.172,3.536,4.524,4.316C28.236,11.524,29.641,10.64,29.536,9.08L29.536,9.08z
				 M49.244,38.46c-7.852-2.235-11.96-4.576-19.084-12.272c6.656-4.419,9.672-6.344,11.023-7.124
				c1.457-0.832,0.78-1.924-0.728-3.172c-2.392-1.976-3.328-1.872-3.328,0c0,1.04-1.456,4.68-7.748,9.36
				c-0.78-0.988-1.56-2.08-2.392-3.172c0.104-2.704,0.572-3.692,1.195-4.42c0.988-1.04,1.092-1.716-0.728-2.6
				c-2.08-1.04-2.548-0.728-3.64,0.104c-1.248,0.884-4.524,1.924-7.592,2.132c-0.884,0.052-1.196,0.728,0.312,1.248
				c0.728,0.26,3.744,0.312,6.292-0.104c1.716-0.312,1.768-0.208,1.82,0.52c0.468,6.864,0.416,15.392-0.468,22.101
				c-0.26,1.976-0.78,2.184-3.64,1.56c-1.872-0.416-1.976,0-0.936,0.937c1.04,0.987,3.224,3.588,3.692,4.523
				c0.884,1.716,1.404,1.611,2.444,0.104c1.716-2.496,2.236-4.523,1.871-10.244c-0.155-2.6-0.467-10.14-0.571-13.416
				c0.937,1.197,2.08,2.705,3.172,4.316c2.651,3.796,6.448,8.633,7.748,10.088c1.664,1.872,2.808,2.028,10.66,1.352
				C51.948,40.02,52,39.292,49.244,38.46L49.244,38.46z M21.216,27.436c0.884-0.832,0.988-1.403-0.832-2.755
				c-1.352-0.988-1.872-0.832-3.068-0.156c-1.924,1.144-7.072,1.924-10.608,1.768c-1.3-0.052-1.456,0.572-0.364,1.456
				c1.508,1.248,2.08,1.352,3.536,0.884c1.924-0.571,4.524-1.248,6.24-1.612c1.352-0.26,1.404-0.155,0.468,1.82
				c-0.988,2.08-2.444,4.628-3.692,6.084c-2.652,2.965-5.876,5.355-7.748,6.5c-1.456,0.885-1.248,1.768,0.78,1.092
				c2.808-0.936,6.448-3.432,8.32-5.304c2.028-2.08,4.264-5.304,4.888-6.655C19.552,29.725,20.384,28.216,21.216,27.436
				L21.216,27.436z"/>
		</g>
	</g>
</g>
</svg>
