<?xml version="1.0" encoding="UTF-8" standalone="no"?>
<svg width="36px" height="48px" viewBox="0 0 36 48" version="1.1" xmlns="http://www.w3.org/2000/svg"
     xmlns:xlink="http://www.w3.org/1999/xlink" xmlns:sketch="http://www.bohemiancoding.com/sketch/ns">
  <!-- Generator: Sketch 3.3 (11970) - http://www.bohemiancoding.com/sketch -->
  <title>marketing-book</title>
  <desc>Created with Sketch.</desc>
  <defs>
    <filter x="-50%" y="-50%" width="200%" height="200%" filterUnits="objectBoundingBox" id="filter-1">
      <feOffset dx="1" dy="1" in="SourceAlpha" result="shadowOffsetOuter1"></feOffset>
      <feGaussianBlur stdDeviation="0" in="shadowOffsetOuter1" result="shadowBlurOuter1"></feGaussianBlur>
      <feColorMatrix values="0 0 0 0 1   0 0 0 0 1   0 0 0 0 1  0 0 0 0.7 0" in="shadowBlurOuter1" type="matrix"
                     result="shadowMatrixOuter1"></feColorMatrix>
      <feOffset dx="1" dy="1" in="SourceAlpha" result="shadowOffsetInner1"></feOffset>
      <feGaussianBlur stdDeviation="0" in="shadowOffsetInner1" result="shadowBlurInner1"></feGaussianBlur>
      <feComposite in="shadowBlurInner1" in2="SourceAlpha" operator="arithmetic" k2="-1" k3="1"
                   result="shadowInnerInner1"></feComposite>
      <feColorMatrix values="0 0 0 0 0   0 0 0 0 0   0 0 0 0 0  0 0 0 0.035 0" in="shadowInnerInner1"
                     type="matrix"
                     result="shadowMatrixInner1"></feColorMatrix>
      <feMerge>
        <feMergeNode in="shadowMatrixOuter1"></feMergeNode>
        <feMergeNode in="SourceGraphic"></feMergeNode>
        <feMergeNode in="shadowMatrixInner1"></feMergeNode>
      </feMerge>
    </filter>
  </defs>
  <g id="assets" stroke="none" stroke-width="1" fill="none" fill-rule="evenodd" sketch:type="MSPage">
    <g id="marketing-book" sketch:type="MSArtboardGroup" filter="url(#filter-1)" fill="#87A64B">
      <path
        d="M36,39.9184666 C36,41.2371789 34.8377458,41.8662197 33.4286412,42.8489382 C32.2972433,43.6396603 30.8572823,42.6594681 30.8572823,41.3660186 L30.8572823,15.8153375 C30.8572823,15.2822949 30.6670018,14.7745149 30.0498757,14.4637838 C29.4327496,14.1530528 10.1527011,4.1945018 10.1527011,4.1945018 C9.84156666,4.08081972 8.4838892,3.23957226 6.67365258,4.15408151 C4.95341353,5.02311792 4.01743891,5.96794239 3.77830254,6.41256567 L24.8120177,17.7353017 C25.3700026,18.0232963 25.7145647,18.4679196 25.7145647,19.0388563 L25.7145647,46.3276102 C25.7145647,46.9086519 25.3494317,47.530114 24.7657333,47.8054773 C24.498312,47.9368433 24.2026057,48 23.9094708,48 C23.5623374,48 23.2126326,47.9166331 22.9169263,47.7372681 C22.3640841,47.4063269 2.92718277,35.6970717 1.64407472,34.9366649 C1.0269486,34.5728822 0.304396769,33.8276329 0.288968616,33.2743801 L0.000976427791,7.28918089 C0.000976427791,6.7889797 -0.0581648252,5.90731194 0.744099129,4.68207165 C2.53633623,1.94359645 8.7898809,-1.17129278 11.9552236,0.442992875 L35.0948817,11.9501465 C35.6528666,12.2330886 36,12.7989728 36,13.7690599 L36,39.9184666 Z"
        id="book" sketch:type="MSShapeGroup"></path>
    </g>
  </g>
</svg>
