<?xml version="1.0" encoding="UTF-8" standalone="no"?>
<svg width="48px" height="48px" viewBox="0 0 48 48" version="1.1" xmlns="http://www.w3.org/2000/svg"
		 xmlns:xlink="http://www.w3.org/1999/xlink" xmlns:sketch="http://www.bohemiancoding.com/sketch/ns">
	<!-- Generator: Sketch 3.3 (11970) - http://www.bohemiancoding.com/sketch -->
	<title>marketing-calendar</title>
	<desc>Created with Sketch.</desc>
	<defs>
		<filter x="-50%" y="-50%" width="200%" height="200%" filterUnits="objectBoundingBox" id="filter-1">
			<feOffset dx="1" dy="1" in="SourceAlpha" result="shadowOffsetOuter1"></feOffset>
			<feGaussianBlur stdDeviation="0" in="shadowOffsetOuter1" result="shadowBlurOuter1"></feGaussianBlur>
			<feColorMatrix values="0 0 0 0 1   0 0 0 0 1   0 0 0 0 1  0 0 0 0.7 0" in="shadowBlurOuter1" type="matrix"
										 result="shadowMatrixOuter1"></feColorMatrix>
			<feOffset dx="1" dy="1" in="SourceAlpha" result="shadowOffsetInner1"></feOffset>
			<feGaussianBlur stdDeviation="0" in="shadowOffsetInner1" result="shadowBlurInner1"></feGaussianBlur>
			<feComposite in="shadowBlurInner1" in2="SourceAlpha" operator="arithmetic" k2="-1" k3="1"
									 result="shadowInnerInner1"></feComposite>
			<feColorMatrix values="0 0 0 0 0   0 0 0 0 0   0 0 0 0 0  0 0 0 0.035 0" in="shadowInnerInner1" type="matrix"
										 result="shadowMatrixInner1"></feColorMatrix>
			<feMerge>
				<feMergeNode in="shadowMatrixOuter1"></feMergeNode>
				<feMergeNode in="SourceGraphic"></feMergeNode>
				<feMergeNode in="shadowMatrixInner1"></feMergeNode>
			</feMerge>
		</filter>
	</defs>
	<g id="assets" stroke="none" stroke-width="1" fill="none" fill-rule="evenodd" sketch:type="MSPage">
		<g id="marketing-calendar" sketch:type="MSArtboardGroup" filter="url(#filter-1)" fill="#87A64B">
			<g id="calendar" sketch:type="MSLayerGroup">
				<path
					d="M42.6666667,5.33333333 L40,5.33333333 L40,10.6666667 L32,10.6666667 L32,5.33333333 L16,5.33333333 L16,10.6666667 L8,10.6666667 L8,5.33333333 L5.33333333,5.33333333 C2.39733333,5.33333333 0,7.73333333 0,10.6666667 L0,42.6666667 C0,45.6 2.39733333,48 5.33333333,48 L42.6666667,48 C45.6,48 48,45.6 48,42.6666667 L48,10.6666667 C48,7.73333333 45.6,5.33333333 42.6666667,5.33333333 L42.6666667,5.33333333 Z M42.6666667,42.6666667 L5.33333333,42.6666667 L5.33333333,21.3333333 L42.6666667,21.3333333 L42.6666667,42.6666667 L42.6666667,42.6666667 Z M14.6666667,0 L9.33333333,0 L9.33333333,9.33333333 L14.6666667,9.33333333 L14.6666667,0 L14.6666667,0 Z M38.6666667,0 L33.3333333,0 L33.3333333,9.33333333 L38.6666667,9.33333333 L38.6666667,0 L38.6666667,0 Z"
					id="Shape" sketch:type="MSShapeGroup"></path>
			</g>
		</g>
	</g>
</svg>
