<?xml version="1.0" encoding="utf-8"?>
<!-- Generator: Adobe Illustrator 16.0.0, SVG Export Plug-In . SVG Version: 6.00 Build 0)  -->
<!DOCTYPE svg PUBLIC "-//W3C//DTD SVG 1.1//EN" "http://www.w3.org/Graphics/SVG/1.1/DTD/svg11.dtd">
<svg version="1.1" id="Layer_1" xmlns:sketch="http://www.bohemiancoding.com/sketch/ns"
	 xmlns="http://www.w3.org/2000/svg" xmlns:xlink="http://www.w3.org/1999/xlink" x="0px" y="0px"
	 viewBox="0 0 52 50" enable-background="new 0 0 52 50" xml:space="preserve">
<g>
	<g>
		<path fill-rule="evenodd" clip-rule="evenodd" fill="none" d="M36.728,33.107c-2.021,1.313-3.822,0.667-5.477-0.322
			c-1.378-0.823-2.646-1.854-3.868-2.902c-7.29-6.253-13.943-13.156-20.645-20.007c-0.686-0.7-1.5-1.398-1.578-2.637
			c1.356-0.098,2.266,0.558,3.197,1.169c8.343,5.471,16.665,10.972,24.639,16.971c1.141,0.858,2.265,1.74,3.149,2.867
			C37.272,29.682,37.769,31.221,36.728,33.107z M47.913,36.683c-1.704,2.676-4.437,3.775-7.589,3.226
			c-2.985-0.52-4.186-2.527-4.742-5.343c1.317-0.528,2.141-1.501,2.625-2.704c4.027-0.599,5.724,1.91,6.604,4.303
			C46.162,37.389,46.883,36.021,47.913,36.683z"/>
		<g>
			<path fill-rule="evenodd" clip-rule="evenodd" fill="#87A623" d="M14.397,36.341c-1.553-1.457-1.276-4.158-0.076-5.978
				c1.02-1.545,2.374-2.803,3.752-4.03c9.633-8.577,19.768-16.55,29.933-24.487C49.141,0.96,50.241,0.017,51.999,0
				c0.032,1.604-0.942,2.589-1.752,3.564c-6.872,8.296-14.604,17.992-24.464,27.974c-1.462,1.48-2.985,2.943-4.672,4.15
				c-1.528,1.095-3.386,2.026-5.288,1.451C15.237,36.963,14.766,36.687,14.397,36.341z"/>
			<path fill-rule="evenodd" clip-rule="evenodd" fill="#87A623" d="M0.031,43.018c1.257-0.961,2.331,0.723,3.942-0.998
				c0.878-3.176,2.859-7.778,8.111-7.436c0.417,2.166,2.417,4.583,4.333,4.333c-0.417,3.686-2.476,6.461-6.266,7.447
				C6.148,47.408,2.511,46.284,0.031,43.018z"/>
		</g>
	</g>
</g>
</svg>
