<?xml version="1.0" encoding="UTF-8" standalone="no"?>
<svg width="48px" height="48px" viewBox="0 0 48 48" version="1.1" xmlns="http://www.w3.org/2000/svg"
		 xmlns:xlink="http://www.w3.org/1999/xlink" xmlns:sketch="http://www.bohemiancoding.com/sketch/ns">
	<!-- Generator: Sketch 3.4.2 (15855) - http://www.bohemiancoding.com/sketch -->
	<title>marketing-review</title>
	<desc>Created with Sketch.</desc>
	<defs></defs>
	<g id="Page-1" stroke="none" stroke-width="1" fill="none" fill-rule="evenodd" sketch:type="MSPage">
		<g id="marketing-review" sketch:type="MSArtboardGroup">
			<g id="ic_access_alarm_black_24px" sketch:type="MSLayerGroup">
				<g id="Group" sketch:type="MSShapeGroup">
					<path d="M0,0 L48,0 L48,48 L0,48 L0,0 Z" id="Shape"></path>
					<path
						d="M6,25.879315 C6,35.8859599 14.04,44 24,44 C33.94,44 42,35.8859599 42,25.879315 C42,15.8726701 33.94,7.75863002 24,7.75863002 C14.06,7.75863002 6,15.8726701 6,25.879315 Z M10,25.879315 C10,18.0874205 16.26,11.7854489 24,11.7854489 C31.74,11.7854489 38,18.0874205 38,25.879315 C38,33.6712096 31.74,39.9731811 24,39.9731811 C16.26,39.9731811 10,33.6712096 10,25.879315 Z M22,15.8122678 L25,15.8122678 L25,27.8927245 L22,27.8927245 L22,15.8122678 Z M20.5,2 L27.5,2 L27.5,6.00008998 L20.5,6.00008998 L20.5,2 Z M38.8284908,6 L43.7782382,10.9497475 L40.9497475,13.7782382 L36,8.82849075 L38.8284908,6 Z"
						id="Shape" fill="#87A64B"></path>
				</g>
			</g>
		</g>
	</g>
</svg>
