<?xml version="1.0" encoding="utf-8"?>
<!-- Generator: Adobe Illustrator 16.0.0, SVG Export Plug-In . SVG Version: 6.00 Build 0)  -->
<!DOCTYPE svg PUBLIC "-//W3C//DTD SVG 1.1//EN" "http://www.w3.org/Graphics/SVG/1.1/DTD/svg11.dtd">
<svg version="1.1" id="Layer_1" xmlns:sketch="http://www.bohemiancoding.com/sketch/ns"
	 xmlns="http://www.w3.org/2000/svg" xmlns:xlink="http://www.w3.org/1999/xlink" x="0px" y="0px"
	 viewBox="0 0 52 50" enable-background="new 0 0 52 50" xml:space="preserve">
<polyline fill="#87A623" points="4.253,18.184 2.125,16.385 33.362,1.55 49.126,12.865 18.275,29.016 "/>
<polyline fill="#87A623" points="3.334,20.181 18.058,33.104 47.288,18.228 48.448,19.583 18.082,35.731 3.189,22.387 "/>
<path fill="#87A623" d="M4.35,21.178"/>
<polyline fill="#87A623" points="3.867,27 18.591,39.922 47.82,25.046 48.981,26.401 18.615,42.551 3.722,29.205 "/>
<polyline fill="#87A623" points="3.515,32.415 18.736,45.87 47.966,30.993 49.126,32.349 18.76,48.498 3.979,35.083 "/>
<polyline fill="#87A623" points="4.063,35.125 3.817,16.288 2.319,16.337 2.826,34.082 "/>
<path fill="#87A623" d="M2.899,33.502"/>
</svg>
