<?xml version="1.0" encoding="UTF-8" standalone="no"?>
<svg width="56px" height="48px" viewBox="0 0 56 48" version="1.1" xmlns="http://www.w3.org/2000/svg" xmlns:xlink="http://www.w3.org/1999/xlink" xmlns:sketch="http://www.bohemiancoding.com/sketch/ns">
    <!-- Generator: Sketch 3.3 (11970) - http://www.bohemiancoding.com/sketch -->
    <title>marketing-lists</title>
    <desc>Created with Sketch.</desc>
    <defs>
        <filter x="-50%" y="-50%" width="200%" height="200%" filterUnits="objectBoundingBox" id="filter-1">
            <feOffset dx="1" dy="1" in="SourceAlpha" result="shadowOffsetOuter1"></feOffset>
            <feGaussianBlur stdDeviation="0" in="shadowOffsetOuter1" result="shadowBlurOuter1"></feGaussianBlur>
            <feColorMatrix values="0 0 0 0 1   0 0 0 0 1   0 0 0 0 1  0 0 0 0.7 0" in="shadowBlurOuter1" type="matrix" result="shadowMatrixOuter1"></feColorMatrix>
            <feOffset dx="1" dy="1" in="SourceAlpha" result="shadowOffsetInner1"></feOffset>
            <feGaussianBlur stdDeviation="0" in="shadowOffsetInner1" result="shadowBlurInner1"></feGaussianBlur>
            <feComposite in="shadowBlurInner1" in2="SourceAlpha" operator="arithmetic" k2="-1" k3="1" result="shadowInnerInner1"></feComposite>
            <feColorMatrix values="0 0 0 0 0   0 0 0 0 0   0 0 0 0 0  0 0 0 0.035 0" in="shadowInnerInner1" type="matrix" result="shadowMatrixInner1"></feColorMatrix>
            <feMerge>
                <feMergeNode in="shadowMatrixOuter1"></feMergeNode>
                <feMergeNode in="SourceGraphic"></feMergeNode>
                <feMergeNode in="shadowMatrixInner1"></feMergeNode>
            </feMerge>
        </filter>
    </defs>
    <g id="assets" stroke="none" stroke-width="1" fill="none" fill-rule="evenodd" sketch:type="MSPage">
        <g id="marketing-lists" sketch:type="MSArtboardGroup" filter="url(#filter-1)" fill="#87A64B">
            <g id="list" sketch:type="MSLayerGroup">
                <path d="M45.6,20 L22.4,20 C20.192,20 20,21.788 20,24 C20,26.212 20.192,28 22.4,28 L45.6,28 C47.808,28 48,26.212 48,24 C48,21.788 47.808,20 45.6,20 L45.6,20 Z M53.6,40 L22.4,40 C20.192,40 20,41.788 20,44 C20,46.212 20.192,48 22.4,48 L53.6,48 C55.808,48 56,46.212 56,44 C56,41.788 55.808,40 53.6,40 L53.6,40 Z M22.4,8 L53.6,8 C55.808,8 56,6.212 56,4 C56,1.788 55.808,0 53.6,0 L22.4,0 C20.192,0 20,1.788 20,4 C20,6.212 20.192,8 22.4,8 L22.4,8 Z M9.6,20 L2.4,20 C0.192,20 0,21.788 0,24 C0,26.212 0.192,28 2.4,28 L9.6,28 C11.808,28 12,26.212 12,24 C12,21.788 11.808,20 9.6,20 L9.6,20 Z M9.6,40 L2.4,40 C0.192,40 0,41.788 0,44 C0,46.212 0.192,48 2.4,48 L9.6,48 C11.808,48 12,46.212 12,44 C12,41.788 11.808,40 9.6,40 L9.6,40 Z M9.6,0 L2.4,0 C0.192,0 0,1.788 0,4 C0,6.212 0.192,8 2.4,8 L9.6,8 C11.808,8 12,6.212 12,4 C12,1.788 11.808,0 9.6,0 L9.6,0 Z" id="Shape" sketch:type="MSShapeGroup"></path>
            </g>
        </g>
    </g>
</svg>