<?xml version="1.0" encoding="UTF-8" standalone="no"?>
<svg width="32px" height="32px" viewBox="0 0 32 32" version="1.1" xmlns="http://www.w3.org/2000/svg"
     xmlns:xlink="http://www.w3.org/1999/xlink" xmlns:sketch="http://www.bohemiancoding.com/sketch/ns">
    <!-- Generator: Sketch 3.2.2 (9983) - http://www.bohemiancoding.com/sketch -->
    <title>modal-page-left</title>
    <desc>Created with Sketch.</desc>
    <defs></defs>
    <g id="assets" stroke="none" stroke-width="1" fill="none" fill-rule="evenodd" sketch:type="MSPage">
        <g id="modal-page-left" sketch:type="MSArtboardGroup" fill="#714918">
            <g id="chevron-with-circle-left-2" sketch:type="MSLayerGroup">
                <path
                        d="M18.0832,10.8416 C17.7696,10.5264 17.2592,10.5264 16.9472,10.8416 L12.456,15.4256 C12.1424,15.744 12.1424,16.2576 12.456,16.5728 L16.9472,21.1552 C17.2592,21.4736 17.7696,21.472 18.0832,21.1552 C18.3968,20.84 18.3968,20.3264 18.0832,20.008 L14.4,16 L18.0832,11.9904 C18.3968,11.6736 18.3968,11.1616 18.0832,10.8416 L18.0832,10.8416 Z M16,0.64 C7.5168,0.64 0.64,7.5168 0.64,16 C0.64,24.4848 7.5168,31.36 16,31.36 C24.4832,31.36 31.36,24.4848 31.36,16 C31.36,7.5168 24.4832,0.64 16,0.64 L16,0.64 Z M16,29.3664 C8.616,29.3664 2.6336,23.3824 2.6336,16 C2.6336,8.6176 8.616,2.6336 16,2.6336 C23.3808,2.6336 29.3664,8.6176 29.3664,16 C29.3664,23.3824 23.3808,29.3664 16,29.3664 L16,29.3664 Z"
                        id="Shape" sketch:type="MSShapeGroup"></path>
            </g>
        </g>
    </g>
</svg>
