<?xml version="1.0" encoding="UTF-8" standalone="no"?>
<svg width="31" height="30" viewBox="0 0 31 30" version="1.1" xmlns="http://www.w3.org/2000/svg"
     xmlns:sketch="http://www.bohemiancoding.com/sketch/ns">
  <g id="Study-assets" fill="none" fill-rule="evenodd" sketch:type="MSPage">
    <g id="study-light-volume-full" sketch:type="MSArtboardGroup" fill="#714918">
      <path
        d="M0,17.893304 C0,18.9972393 0.901769356,19.8921558 2.0061665,19.8921558 L4.68032026,19.8921558 C5.78829542,19.8921558 7.32845528,20.5281588 8.10432593,21.2968196 L13.626756,26.767932 C14.409807,27.5437064 15.0445952,27.2757964 15.0445952,26.1809836 L15.0445952,3.66679999 C15.0445952,2.56686293 14.4026267,2.31119074 13.626756,3.07985154 L8.10432593,8.550964 C7.32127498,9.32673838 5.7847174,9.95562778 4.68032026,9.95562778 L2.0061665,9.95562778 C0.898191338,9.95562778 0,10.8549536 0,11.9544796 L0,17.893304 Z M22.5668928,14.9238918 C22.5668928,12.0008965 20.8618387,9.47536225 18.3878386,8.25813757 L18.3878386,21.5979264 C20.8618387,20.3724213 22.5668928,17.8468871 22.5668928,14.9238918 L22.5668928,14.9238918 Z M18.3878386,0.400000006 L18.3878386,3.81982173 C23.2188253,5.24405741 26.745947,9.67409282 26.745947,14.9238918 C26.745947,20.1736907 23.2188253,24.6037261 18.3878386,26.0279618 L18.3878386,29.4477836 C25.0826835,27.9407435 30.0891904,22.0202289 30.0891904,14.9238918 C30.0891904,7.82755469 25.0826835,1.90704009 18.3878386,0.400000006 L18.3878386,0.400000006 Z"
        id="study-volume-full" sketch:type="MSShapeGroup"/>
    </g>
  </g>
</svg>
