<svg xmlns="http://www.w3.org/2000/svg" xmlns:sketch="http://www.bohemiancoding.com/sketch/ns" width="19" height="23" viewBox="0 0 19 23" version="1.1">
  <g id="Study-assets" fill="none" fill-rule="evenodd" sketch:type="MSPage">
    <g id="study-word-edit" sketch:type="MSArtboardGroup">
      <path d="M15.82 1.73C13.27-0.11 11.45-0.07 10.76 0.04 10.57 0.07 10.4 0.18 10.29 0.34L4.07 8.83 1.02 12.99C0.65 13.49 0.43 14.1 0.4 14.73L0 22.21C-0.03 22.75 0.52 23.14 1.02 22.95L8.1 20.27C8.7 20.05 9.22 19.65 9.59 19.14L12.07 15.75 18.85 6.5C18.97 6.34 19.02 6.14 18.99 5.94 18.88 5.24 18.33 3.54 15.82 1.73L15.82 1.73ZM8.12 18.78L5.37 19.83C5.26 19.87 5.14 19.84 5.07 19.75 4.72 19.3 4.3 18.86 3.63 18.37 2.96 17.89 2.4 17.63 1.86 17.43 1.76 17.39 1.69 17.29 1.69 17.18L1.86 14.27 2.6 13.26C2.6 13.26 4.25 13.04 6.41 14.59 8.57 16.14 8.86 17.77 8.86 17.77L8.12 18.78 8.12 18.78Z" sketch:type="MSShapeGroup"/>
    </g>
  </g>
</svg>
