<?xml version="1.0" encoding="UTF-8" standalone="no"?>
<svg viewBox="0 0 59 44" version="1.1" xmlns="http://www.w3.org/2000/svg"
     xmlns:xlink="http://www.w3.org/1999/xlink" xmlns:sketch="http://www.bohemiancoding.com/sketch/ns">
  <!-- Generator: Sketch 3.2.2 (9983) - http://www.bohemiancoding.com/sketch -->
  <g id="Study-assets" stroke="none" stroke-width="1" fill="none" fill-rule="evenodd" sketch:type="MSPage">
    <g id="study-incorrect-disabled" sketch:type="MSArtboardGroup" transform="translate(0.600000, 0.000000)"
       fill="#D8DADC">
      <g id="study-correct" sketch:type="MSLayerGroup">
        <path
          d="M37.370401,42.8888069 C36.97462,42.8888069 36.5997654,42.7016568 36.3595673,42.3789843 L33.1087043,38.0265934 C32.6856281,37.4614556 32.7957189,36.6566182 33.3543614,36.2279247 C33.9139139,35.7973874 34.7082053,35.9107838 35.1312815,36.4768435 L37.2703184,39.3384875 L42.6483904,30.5876096 C43.0186958,29.9865168 43.8011594,29.8021325 44.3961956,30.1773545 C44.9903219,30.5516546 45.1732001,31.344507 44.8019848,31.9474436 L38.4476531,42.2821826 C38.2274715,42.6426539 37.846248,42.8676027 37.4286308,42.886963 C37.4086143,42.8888069 37.3904175,42.8888069 37.370401,42.8888069 Z M27.5454581,30.8358681 C26.1385329,32.2614733 23.8586541,32.2614733 22.4547287,30.8358681 L14.5021515,21.6256686 L6.54957433,30.8328285 C5.14264913,32.2584336 2.86277033,32.2584336 1.45884497,30.8328285 C0.0519197719,29.4072233 0.0519197719,27.0970743 1.45884497,25.6745088 L9.73240511,16.0995488 L1.45584513,6.51850948 C0.0489199314,5.09290433 0.0489199314,2.78579492 1.45584513,1.36018977 C2.86277033,-0.0654153801 5.13964929,-0.0654153801 6.54657449,1.36018977 L14.5021515,10.573429 L22.4547287,1.36018977 C23.8616539,-0.0654153801 26.1385329,-0.0654153801 27.5454581,1.36018977 C28.9523833,2.78579492 28.9523833,5.095944 27.5454581,6.51850948 L19.271898,16.0995488 L27.5454581,25.6745088 C28.9523833,27.1001139 28.9523833,29.410263 27.5454581,30.8358681 Z M50.0558415,32.9779082 L46.1458405,24.0397291 L51.1359589,26.1945018 C52.8535995,21.097389 50.2248256,15.2872866 45.1418851,13.0927791 C43.0620292,12.1925097 40.8864385,12.0374392 38.9032667,12.5062465 L37.6064269,9.28703107 C40.3555107,8.54869341 43.4026814,8.71792969 46.313618,9.97396357 C53.1252283,12.9196485 56.6319855,20.7313599 54.2669414,27.5484577 L58.0339153,29.1771494 L50.0558415,32.9779082 Z"
          id="Shape" sketch:type="MSShapeGroup"></path>
      </g>
    </g>
  </g>
</svg>
