<?xml version="1.0" encoding="UTF-8" standalone="no"?>
<svg viewBox="0 0 44 48" version="1.1" xmlns="http://www.w3.org/2000/svg"
     xmlns:xlink="http://www.w3.org/1999/xlink" xmlns:sketch="http://www.bohemiancoding.com/sketch/ns">
  <g id="Study-assets" stroke="none" stroke-width="1" fill="none" fill-rule="evenodd" sketch:type="MSPage">
    <g id="study-erase-disabled" sketch:type="MSArtboardGroup" fill="#D8DADC">
      <path
        d="M41.5520115,7.81143114 L32.6813865,1.13616233 C30.2288865,-0.710891438 26.676699,-0.25669789 24.786699,2.14089351 L1.16169897,32.1369365 C-0.725488527,34.5345279 -0.264238527,38.0056677 2.18826147,39.8527215 L11.056074,46.5279903 C13.508574,48.375044 17.0607615,47.9208505 18.9507615,45.5232591 L42.578574,15.5272161 C44.4657615,13.1296247 44.0045115,9.65848491 41.5520115,7.81143114 L41.5520115,7.81143114 Z M17.7863865,41.6337107 L16.276074,43.5082914 C15.848574,44.0505709 15.1932615,44.3616247 14.4788865,44.3616247 C14.1301365,44.3616247 13.609824,44.2817967 13.114824,43.9101838 L4.24701147,37.234915 C3.77451147,36.8798182 3.47357397,36.3623129 3.39482397,35.7759903 C3.31607397,35.1896677 3.47357397,34.6143559 3.83638647,34.1546569 L5.34669897,32.2800763 C5.77419897,31.7377967 6.42951147,31.4239903 7.14669897,31.4239903 C7.49544897,31.4239903 8.01576147,31.5038182 8.51076147,31.8754311 L17.3813865,38.5507 C17.8538865,38.9057967 18.154824,39.4233021 18.233574,40.0096247 C18.306699,40.5959473 18.149199,41.1712591 17.7863865,41.6337107 L17.7863865,41.6337107 Z"
        id="study-erase" sketch:type="MSShapeGroup"></path>
    </g>
  </g>
</svg>
