<?xml version="1.0" encoding="UTF-8" standalone="no"?>
<svg
   xmlns:sketch="http://www.bohemiancoding.com/sketch/ns"
   xmlns:dc="http://purl.org/dc/elements/1.1/"
   xmlns:cc="http://creativecommons.org/ns#"
   xmlns:rdf="http://www.w3.org/1999/02/22-rdf-syntax-ns#"
   xmlns:svg="http://www.w3.org/2000/svg"
   xmlns="http://www.w3.org/2000/svg"
   xmlns:sodipodi="http://sodipodi.sourceforge.net/DTD/sodipodi-0.dtd"
   xmlns:inkscape="http://www.inkscape.org/namespaces/inkscape"
   viewBox="0 0 50 44"
   version="1.1"
   id="svg23"
   sodipodi:docname="study-dont-know.svg"
   inkscape:version="0.92.1 r15371">
  <metadata
     id="metadata29">
    <rdf:RDF>
      <cc:Work
         rdf:about="">
        <dc:format>image/svg+xml</dc:format>
        <dc:type
           rdf:resource="http://purl.org/dc/dcmitype/StillImage" />
        <dc:title></dc:title>
      </cc:Work>
    </rdf:RDF>
  </metadata>
  <defs
     id="defs27" />
  <!-- Generator: Sketch 3.2.2 (9983) - http://www.bohemiancoding.com/sketch -->
  <g
     id="g65"
     transform="translate(-8.0169493)">
    <g
       sketch:type="MSPage"
       id="Study-assets"
       style="fill:none;fill-rule:evenodd;stroke:none;stroke-width:1">
      <g
         sketch:type="MSArtboardGroup"
         id="study-correct"
         style="fill:#87a64b">
        <g
           id="Shape"
           sketch:type="MSLayerGroup">
          <path
             sodipodi:nodetypes="scccccccscccscccscccccccccc"
             inkscape:connector-curvature="0"
             id="path18"
             sketch:type="MSShapeGroup"
             d="m 44.512976,43.528254 c -0.574353,0.581979 -1.505074,0.581979 -2.078203,0 l -3.246503,-3.759906 -3.246503,3.758665 c -0.574354,0.581979 -1.505075,0.581979 -2.078203,0 -0.574353,-0.581979 -0.574353,-1.525058 0,-2.105796 l 3.377539,-3.908813 -3.378764,-3.911295 c -0.574353,-0.581979 -0.574353,-1.523816 0,-2.105795 0.574353,-0.581979 1.50385,-0.581979 2.078203,0 l 3.247728,3.761147 3.246503,-3.761147 c 0.574353,-0.581979 1.50385,-0.581979 2.078203,0 0.574353,0.581979 0.574353,1.525057 0,2.105795 l -3.377539,3.911295 3.377539,3.908813 c 0.574353,0.581979 0.574353,1.525058 0,2.107037 z m 5.542865,-10.550346 -3.910001,-8.938179 4.990119,2.154773 C 52.8536,21.097389 50.224826,15.287287 45.141885,13.092779 43.062029,12.19251 40.886438,12.037439 38.903267,12.506247 l -1.29684,-3.2192159 c 2.749084,-0.7383377 5.796254,-0.5691014 8.707191,0.6869325 6.81161,2.9456854 10.318367,10.7573964 7.953323,17.5744944 l 3.766974,1.628691 z" />
          <path
             d="m 24.594392,27.34252 v 6.467048 q 0,0.431136 -0.323353,0.754489 -0.323352,0.323352 -0.754489,0.323352 h -6.467047 q -0.431137,0 -0.754489,-0.323352 -0.323353,-0.323353 -0.323353,-0.754489 V 27.34252 q 0,-0.431136 0.323353,-0.754489 0.323352,-0.323352 0.754489,-0.323352 h 6.467047 q 0.431137,0 0.754489,0.323352 0.323353,0.323353 0.323353,0.754489 z m 8.514946,-16.167619 q 0,1.455086 -0.431137,2.72155 -0.40419,1.266463 -0.943111,2.074844 -0.511975,0.781435 -1.482032,1.589816 -0.943111,0.808381 -1.535924,1.185625 -0.592812,0.350299 -1.643707,0.943111 -1.104788,0.619759 -1.859277,1.751492 -0.727543,1.131734 -0.727543,1.805385 0,0.458082 -0.323352,0.889219 -0.323352,0.40419 -0.754489,0.40419 h -6.467047 q -0.404191,0 -0.700597,-0.485029 -0.269461,-0.511974 -0.269461,-1.023949 v -1.212571 q 0,-2.236521 1.751493,-4.203581 1.751492,-1.994006 3.853282,-2.937118 1.589816,-0.727542 2.263467,-1.508977 0.673651,-0.781435 0.673651,-2.047899 0,-1.131733 -1.266464,-1.994006 -1.239517,-0.862273 -2.883225,-0.862273 -1.751492,0 -2.910172,0.7814349 -0.943111,0.6736508 -2.883225,3.0987941 -0.350299,0.431136 -0.835327,0.431136 -0.323353,0 -0.673651,-0.215568 L 8.6423409,8.9922728 Q 8.2920425,8.7228125 8.2112044,8.318622 8.1573123,7.9144316 8.3728806,7.5641331 12.684246,0.39648873 20.875839,0.39648873 q 2.155683,0 4.338311,0.83532697 2.182629,0.835327 3.934121,2.2365206 1.751492,1.4011937 2.856279,3.4490921 1.104788,2.0209524 1.104788,4.2574726 z"
             style="stroke-width:1.20718217"
             id="path4542"
             inkscape:connector-curvature="0" />
        </g>
      </g>
    </g>
  </g>
</svg>
