<?xml version="1.0" encoding="UTF-8" standalone="no"?>
<svg width="216px" height="32px" viewBox="0 0 216 32" version="1.1" xmlns="http://www.w3.org/2000/svg"
     xmlns:xlink="http://www.w3.org/1999/xlink" xmlns:sketch="http://www.bohemiancoding.com/sketch/ns">
  <!-- Generator: Sketch 3.3 (11970) - http://www.bohemiancoding.com/sketch -->
  <title>study-daily-goal-partial</title>
  <desc>Created with Sketch.</desc>
  <defs>
    <path
      d="M188.580941,15.9265316 L2.82270857,15.9265316 C1.45493913,15.9265316 0.330171544,17.0458197 0.330171544,18.4265316 C0.330171544,19.8168695 1.44611838,20.9265316 2.82270857,20.9265316 L192.869743,20.9265316 L190.615071,29.243251 C190.038096,31.3715152 190.99552,32.0158256 192.754767,30.6778247 L200.331793,24.9150946 L207.910211,30.6778247 C209.666766,32.0135324 210.627768,31.3735451 210.049934,29.243251 L207.393273,19.448969 L214.556748,14.0670709 C216.308219,12.7511965 215.958122,11.6694938 213.750196,11.6694938 L205.057918,11.6694938 L201.673469,2.18412042 C200.93036,0.101457497 199.730852,0.107404159 198.989555,2.18412042 L195.603688,11.6694938 L186.91141,11.6694938 C184.704871,11.6694938 184.342652,12.7429256 186.105467,14.0670709 L188.580941,15.9265316 Z"
      id="path-1"></path>
  </defs>
  <g id="Study-assets" stroke="none" stroke-width="1" fill="none" fill-rule="evenodd" sketch:type="MSPage">
    <g id="study-daily-goal-partial" sketch:type="MSArtboardGroup" opacity="0.2">
      <g id="Rectangle-324-Copy-2">
        <use fill="#8E5C1E" fill-rule="evenodd" sketch:type="MSShapeGroup" xlink:href="#path-1"></use>
        <use fill="none" xlink:href="#path-1"></use>
      </g>
    </g>
  </g>
</svg>
