<?xml version="1.0" encoding="UTF-8" standalone="no"?>
<svg viewBox="0 0 114 114" version="1.1" xmlns="http://www.w3.org/2000/svg"
     xmlns:sketch="http://www.bohemiancoding.com/sketch/ns">
  <g id="Study-assets" fill="none" fill-rule="evenodd" sketch:type="MSPage">
    <g id="study-new-character" sketch:type="MSArtboardGroup" fill="#c5da4b">
      <path
        d="M1.42108547e-14,48.6897321 L1.42108547e-14,114 L114,-1.42108547e-14 L48.7483828,-1.42108547e-14 L1.42108547e-14,48.6897321 Z M25.5416963,42.2526846 L27.243172,43.9541603 L26.0250701,45.7523107 L38.1094145,57.8366551 L35.2961791,60.6498905 L20.1375775,56.8602401 L20.0892401,56.9279124 L27.5718661,64.4105385 L29.3700166,63.1924365 L31.0618248,64.8842448 L25.2323371,70.7137325 L23.5405288,69.0219243 L24.7489633,67.2334413 L14.6464514,57.1309294 L12.8579684,58.3393638 L11.1564927,56.6378881 L12.6549514,55.1394294 L15.4778543,52.3165266 L30.6364559,56.106177 L30.6847933,56.0385047 L23.2118347,48.5655461 L21.4136842,49.783648 L19.7122085,48.0821723 L24.0335701,43.7608107 L25.5416963,42.2526846 Z M45.804725,50.5473786 C44.2965913,52.0555123 42.6080224,52.7773432 40.7389678,52.7128931 C38.8699132,52.6484429 37.1910117,51.8718302 35.7022131,50.3830315 L35.315514,49.9963325 C33.7622652,48.4430836 32.9099246,46.7367913 32.7584668,44.8774042 C32.6070089,43.0180171 33.253112,41.3729514 34.6967956,39.9421579 C36.1082541,38.5306994 37.629255,37.8604278 39.259844,37.931323 C40.8904331,38.0022182 42.4307688,38.7627186 43.8808973,40.2128472 L45.418026,41.7499758 L39.1728368,47.995165 L39.2115067,48.0725048 C39.9526835,48.7105614 40.7502423,49.0473084 41.6042069,49.082756 C42.4581715,49.1182036 43.2363955,48.784679 43.9389022,48.0821723 C44.5640687,47.4570058 45.0200468,46.8753518 45.30685,46.337193 C45.5936532,45.7990341 45.8466163,45.1497085 46.0657468,44.3891967 L48.569623,45.3656117 C48.4793928,46.1390136 48.2070949,46.9849092 47.7527213,47.903324 C47.2983477,48.8217388 46.6490221,49.7030815 45.804725,50.5473786 Z M36.8719776,42.1173399 C36.3499313,42.6393862 36.137249,43.2516535 36.2339242,43.9541603 C36.3305994,44.656667 36.6689577,45.3688306 37.2490091,46.0906723 L37.3263489,46.1100073 L40.7873052,42.6490511 L40.5359508,42.3976967 C39.9365643,41.7983102 39.3178521,41.459952 38.6797955,41.3826118 C38.0417389,41.3052716 37.439139,41.5501785 36.8719776,42.1173399 Z M57.2896859,21.138918 L56.3712757,22.3280175 L62.8098144,33.1362551 L60.4509504,35.4951192 L52.2819336,31.2124275 L52.2239287,31.2704324 L56.5066204,39.4394492 L54.1574238,41.7886457 L43.3395187,35.3597745 L42.1504192,36.2781847 L40.4489435,34.576709 L45.1860065,29.839646 L46.8874822,31.5411217 L45.988407,32.8655658 L51.7598899,36.6648837 L51.8178948,36.6068789 L47.0711643,27.9544883 L48.9659895,26.0596631 L57.65705,30.8063935 L57.7150548,30.7483887 L53.896402,24.9769058 L52.5526229,25.875981 L50.8511472,24.1745053 L55.5882102,19.4374423 L57.2896859,21.138918 Z"
        sketch:type="MSShapeGroup"/>
    </g>
  </g>
</svg>
