<?xml version="1.0" encoding="UTF-8" standalone="no"?>
<svg width="31" height="30" viewBox="0 0 31 30" version="1.1" xmlns="http://www.w3.org/2000/svg"
     xmlns:sketch="http://www.bohemiancoding.com/sketch/ns">
  <g id="Study-assets" fill="none" fill-rule="evenodd" sketch:type="MSPage">
    <g id="study-light-volume-mute" sketch:type="MSArtboardGroup" fill="#714918">
      <path
        d="M22.5668928,14.904792 C22.5668928,11.9817967 20.8618387,9.45626249 18.3878386,8.23903781 L18.3878386,11.8989923 L22.4916698,15.9646883 C22.5418185,15.6169099 22.5668928,15.2608509 22.5668928,14.904792 L22.5668928,14.904792 Z M26.745947,14.904792 C26.745947,16.4615147 26.4032646,17.9271526 25.8432713,19.2768643 L28.3757782,21.7858377 C29.4623323,19.7240081 30.0891904,17.388924 30.0891904,14.904792 C30.0891904,7.81673537 25.0826835,1.88794032 18.3878386,0.38090024 L18.3878386,3.80072196 C23.2188253,5.22495765 26.745947,9.65499305 26.745947,14.904792 L26.745947,14.904792 Z M0,2.1115122 L7.89841248,9.93652801 L1.99310297,9.93652801 C0.892342596,9.93652801 0,10.8358538 0,11.9353798 L0,17.8742042 C0,18.9781396 0.901769356,19.873056 2.0061665,19.873056 L4.68032026,19.873056 C5.78829542,19.873056 7.32845528,20.509059 8.10432593,21.2777198 L13.626756,26.7488323 C14.409807,27.5246066 15.0445952,27.2609192 15.0445952,26.1623893 L15.0445952,17.0163042 L22.1573455,24.0629587 C21.037359,24.915844 19.7752846,25.6031205 18.3878386,26.0171425 L18.3878386,29.4369642 C20.6863184,28.9152965 22.7842036,27.8719611 24.5477645,26.4394449 L27.9578728,29.809584 L30.0891904,27.6980718 L15.0445952,12.7932798 L2.13131765,0 L0,2.1115122 Z M11.5509059,5.11731193 L15.0445952,8.57853585 L15.0445952,3.40291389 C15.0445952,2.43816859 14.4832736,2.2121935 13.8030139,2.88613177 L11.5509059,5.11731193 Z"
        id="study-volume-mute" sketch:type="MSShapeGroup"/>
    </g>
  </g>
</svg>
