<?xml version="1.0" encoding="UTF-8" standalone="no"?>
<svg width="31" height="30" viewBox="0 0 31 30" version="1.1" xmlns="http://www.w3.org/2000/svg"
     xmlns:sketch="http://www.bohemiancoding.com/sketch/ns">
  <g id="Study-assets" fill="none" fill-rule="evenodd" sketch:type="MSPage">
    <g id="study-light-volume-med" sketch:type="MSArtboardGroup" fill="#714918">
      <path
        d="M21.7966246,14.8335419 C21.7966246,12.0103162 20.1497686,9.57098521 17.7602127,8.39530765 L17.7602127,21.279774 C20.1497686,20.0960986 21.7966246,17.6567676 21.7966246,14.8335419 L21.7966246,14.8335419 Z M0,17.6319853 C0,18.7366877 0.897993263,19.6322258 2.00803196,19.6322258 L4.45022719,19.6322258 C5.55923262,19.6322258 7.09172011,20.2598003 7.88293508,21.0436628 L13.1064072,26.2185953 C13.8932339,26.9981105 14.5310831,26.7341711 14.5310831,25.6217941 L14.5310831,4.04528974 C14.5310831,2.93617036 13.8976221,2.66462592 13.1064072,3.44848847 L7.88293508,8.62342098 C7.09610829,9.40293611 5.56026589,10.034858 4.45022719,10.034858 L2.00803196,10.034858 C0.899026532,10.034858 0,10.9205526 0,12.0350985 L0,17.6319853 Z"
        id="study-volume-med" sketch:type="MSShapeGroup"/>
    </g>
  </g>
</svg>
