<?xml version="1.0" encoding="utf-8"?>
<!-- Generator: Adobe Illustrator 16.0.0, SVG Export Plug-In . SVG Version: 6.00 Build 0)  -->
<!DOCTYPE svg PUBLIC "-//W3C//DTD SVG 1.1//EN" "http://www.w3.org/Graphics/SVG/1.1/DTD/svg11.dtd">
<svg version="1.1" id="Layer_1" xmlns:sketch="http://www.bohemiancoding.com/sketch/ns"
	 xmlns="http://www.w3.org/2000/svg" xmlns:xlink="http://www.w3.org/1999/xlink" x="0px" y="0px" width="114px" height="114px"
	 viewBox="0 0 114 114" enable-background="new 0 0 114 114" xml:space="preserve">
<g id="Study-assets" sketch:type="MSPage">
	<g id="study-new-character" sketch:type="MSArtboardGroup">
		<g>
			<path sketch:type="MSShapeGroup" fill="#E74C3C" d="M0,48.69V114L114,0H48.749L0,48.69z"/>
		</g>
	</g>
</g>
<g>
	<path fill="#FFFFFF" d="M21.025,74.033l-1.692-1.691l1.208-1.789L10.439,60.45L8.65,61.658l-1.701-1.701l1.498-1.498l2.823-2.823
		l1.509-1.508l1.701,1.701l-1.219,1.798l9.919,9.92l3.974-3.974l-1.634-1.905l2.155-2.155l3.936,3.935L21.025,74.033z"/>
	<path fill="#FFFFFF" d="M37.904,57.561c-1.508,1.508-3.197,2.229-5.066,2.165s-3.548-0.841-5.037-2.33l-0.387-0.387
		c-1.553-1.553-2.405-3.259-2.557-5.119c-0.15-1.859,0.496-3.504,1.938-4.935c1.411-1.412,2.933-2.082,4.563-2.011
		s3.171,0.831,4.621,2.281l1.537,1.537l-6.245,6.245l0.038,0.078c0.742,0.639,1.539,0.975,2.394,1.01
		c0.854,0.035,1.632-0.298,2.335-1c0.625-0.625,1.08-1.207,1.367-1.745s0.539-1.188,0.759-1.948l2.505,0.976
		c-0.091,0.774-0.363,1.62-0.818,2.538C39.398,55.834,38.748,56.716,37.904,57.561z M28.971,49.13
		c-0.521,0.522-0.734,1.135-0.637,1.837c0.096,0.703,0.435,1.415,1.015,2.136l0.077,0.02l3.461-3.461l-0.252-0.251
		c-0.599-0.599-1.217-0.938-1.855-1.015S29.538,48.563,28.971,49.13z"/>
	<path fill="#FFFFFF" d="M48.451,47.013c-1.508,1.508-3.196,2.23-5.065,2.166s-3.548-0.841-5.037-2.33l-0.387-0.387
		c-1.553-1.553-2.405-3.259-2.557-5.119c-0.151-1.859,0.495-3.503,1.938-4.935c1.411-1.412,2.932-2.081,4.563-2.011
		c1.631,0.071,3.172,0.831,4.621,2.281l1.537,1.537l-6.245,6.246l0.039,0.077c0.741,0.639,1.538,0.975,2.393,1.011
		c0.854,0.035,1.632-0.298,2.335-1.001c0.625-0.625,1.08-1.207,1.367-1.745c0.287-0.539,0.54-1.188,0.76-1.949l2.504,0.977
		c-0.09,0.774-0.363,1.62-0.817,2.538S49.296,46.168,48.451,47.013z M39.519,38.583c-0.522,0.522-0.734,1.135-0.638,1.837
		c0.097,0.703,0.435,1.415,1.015,2.137l0.077,0.019l3.461-3.461l-0.251-0.251c-0.599-0.599-1.218-0.938-1.856-1.015
		C40.688,37.771,40.086,38.016,39.519,38.583z"/>
	<path fill="#FFFFFF" d="M56.736,34.396c0.504-0.503,0.76-1.052,0.77-1.648c0.01-0.596-0.23-1.139-0.721-1.629l2.553-2.552
		l0.086,0.029c1.083,1.032,1.572,2.313,1.465,3.843c-0.105,1.531-0.768,2.905-1.986,4.124c-1.56,1.56-3.254,2.268-5.086,2.126
		c-1.83-0.142-3.518-0.986-5.064-2.533l-0.291-0.29c-1.539-1.54-2.373-3.24-2.498-5.1c-0.127-1.858,0.613-3.591,2.218-5.196
		c0.845-0.845,1.728-1.476,2.649-1.895c0.922-0.419,1.834-0.622,2.735-0.609l2.833,2.755l-2.291,2.292l-2.098-1.17
		c-0.264,0.02-0.539,0.092-0.826,0.218s-0.563,0.32-0.828,0.585c-0.799,0.799-1.072,1.653-0.82,2.562
		c0.25,0.909,0.834,1.821,1.749,2.736l0.29,0.29c0.936,0.935,1.838,1.536,2.711,1.803C55.16,35.403,55.977,35.157,56.736,34.396z"/>
	<path fill="#FFFFFF" d="M62.373,29.301l1.072-1.653L52.338,16.541l-1.798,1.218l-1.702-1.702l4.322-4.321l5.955,5.956
		c-0.154-0.812-0.127-1.59,0.082-2.335c0.21-0.744,0.604-1.407,1.184-1.987c1.096-1.096,2.317-1.591,3.664-1.488
		c1.348,0.103,2.779,0.912,4.293,2.426l4.225,4.225l1.644-1.063l1.692,1.692l-5.395,5.395l-1.692-1.692l0.929-1.508l-4.244-4.244
		c-0.813-0.812-1.531-1.243-2.156-1.295c-0.625-0.052-1.222,0.207-1.789,0.773c-0.393,0.393-0.664,0.807-0.816,1.242
		s-0.198,0.881-0.141,1.339l5.666,5.665l1.508-0.928l1.691,1.692l-5.395,5.395L62.373,29.301z"/>
</g>
</svg>
