<?xml version="1.0" encoding="UTF-8" standalone="no"?>
<svg viewBox="0 0 58 44" version="1.1" xmlns="http://www.w3.org/2000/svg"
     xmlns:xlink="http://www.w3.org/1999/xlink" xmlns:sketch="http://www.bohemiancoding.com/sketch/ns">
  <!-- Generator: Sketch 3.2.2 (9983) - http://www.bohemiancoding.com/sketch -->
  <g id="Study-assets" stroke="none" stroke-width="1" fill="none" fill-rule="evenodd" sketch:type="MSPage">
    <g id="study-correct-disabled" sketch:type="MSArtboardGroup" fill="#D8DADC">
      <g id="study-correct" sketch:type="MSLayerGroup">
        <path
          d="M12.5568849,35.0282297 C11.4922318,35.0282297 10.4838706,34.524795 9.83773633,33.6568041 L1.09289573,21.9488468 C-0.0451817644,20.4286227 0.250963131,18.2636054 1.75371492,17.1104175 C3.25891418,15.9522697 5.39556289,16.2573065 6.53364038,17.7800105 L12.2876623,25.4778498 L26.7547076,1.93793657 C27.7508313,0.320993515 29.8556628,-0.175001286 31.4563137,0.834348134 C33.0545172,1.84121758 33.5464603,3.97399522 32.5478891,5.59589822 L15.4546994,33.3964068 C14.8624096,34.3660767 13.8369162,34.9711903 12.7135235,35.0232698 C12.659679,35.0282297 12.6107294,35.0282297 12.5568849,35.0282297 Z M44.512976,43.5282538 C43.9386229,44.1102327 43.0079015,44.1102327 42.434773,43.5282538 L39.1882698,39.7683478 L35.9417666,43.5270129 C35.3674135,44.1089918 34.4366921,44.1089918 33.8635636,43.5270129 C33.2892106,42.9450341 33.2892106,42.0019553 33.8635636,41.4212174 L37.2411026,37.5124042 L33.862339,33.6011093 C33.2879859,33.0191304 33.2879859,32.0772926 33.862339,31.4953137 C34.4366921,30.9133349 35.3661889,30.9133349 35.9405419,31.4953137 L39.1882698,35.2564606 L42.434773,31.4953137 C43.0091261,30.9133349 43.9386229,30.9133349 44.512976,31.4953137 C45.087329,32.0772926 45.087329,33.0203713 44.512976,33.6011093 L41.135437,37.5124042 L44.512976,41.4212174 C45.087329,42.0031962 45.087329,42.946275 44.512976,43.5282538 Z M50.0558415,32.9779082 L46.1458405,24.0397291 L51.1359589,26.1945018 C52.8535995,21.097389 50.2248256,15.2872866 45.1418851,13.0927791 C43.0620292,12.1925097 40.8864385,12.0374392 38.9032667,12.5062465 L37.6064269,9.28703107 C40.3555107,8.54869341 43.4026814,8.71792969 46.313618,9.97396357 C53.1252283,12.9196485 56.6319855,20.7313599 54.2669414,27.5484577 L58.0339153,29.1771494 L50.0558415,32.9779082 Z"
          id="Shape" sketch:type="MSShapeGroup"></path>
      </g>
    </g>
  </g>
</svg>
