<?xml version="1.0" encoding="UTF-8" standalone="no"?>
<svg viewBox="0 0 52 50" version="1.1" xmlns="http://www.w3.org/2000/svg"
     xmlns:xlink="http://www.w3.org/1999/xlink" xmlns:sketch="http://www.bohemiancoding.com/sketch/ns">
  <g id="Study-assets" stroke="none" stroke-width="1" fill="none" fill-rule="evenodd" sketch:type="MSPage">
    <g id="study-stroke-order-disabled" sketch:type="MSArtboardGroup" fill="#D8DADC">
      <g id="study-stroke-order" sketch:type="MSLayerGroup">
        <text id="1" sketch:type="MSTextLayer" font-family="Helvetica Neue" font-size="10" font-weight="420">
          <tspan x="14" y="10">1</tspan>
        </text>
        <text id="2" sketch:type="MSTextLayer" font-family="Helvetica Neue" font-size="10" font-weight="420">
          <tspan x="9" y="21">2</tspan>
        </text>
        <text id="3" sketch:type="MSTextLayer" font-family="Helvetica Neue" font-size="10" font-weight="420">
          <tspan x="0" y="38">3</tspan>
        </text>
        <text id="4" sketch:type="MSTextLayer" font-family="Helvetica Neue" font-size="10" font-weight="420">
          <tspan x="43" y="18">4</tspan>
        </text>
        <text id="5" sketch:type="MSTextLayer" font-family="Helvetica Neue" font-size="10" font-weight="420">
          <tspan x="42" y="34">5</tspan>
        </text>
        <path
          d="M29.536,9.08 C29.38,6.376 26.988,4.972 23.14,5.024 C21.476,5.024 21.424,5.388 22.204,6.376 C23.4,7.936 25.376,9.912 26.728,10.692 C28.236,11.524 29.64,10.64 29.536,9.08 L29.536,9.08 Z M49.244,38.46 C41.392,36.224 37.284,33.884 30.16,26.188 C36.816,21.768 39.832,19.844 41.184,19.064 C42.64,18.232 41.964,17.14 40.456,15.892 C38.064,13.916 37.128,14.02 37.128,15.892 C37.128,16.932 35.672,20.572 29.38,25.252 C28.6,24.264 27.82,23.172 26.988,22.08 C27.092,19.376 27.56,18.388 28.184,17.66 C29.172,16.62 29.276,15.944 27.456,15.06 C25.376,14.02 24.908,14.332 23.816,15.164 C22.568,16.048 19.292,17.088 16.224,17.296 C15.34,17.348 15.028,18.024 16.536,18.544 C17.264,18.804 20.28,18.856 22.828,18.44 C24.544,18.128 24.596,18.232 24.648,18.96 C25.116,25.824 25.064,34.352 24.18,41.06 C23.92,43.036 23.4,43.244 20.54,42.62 C18.668,42.204 18.564,42.62 19.604,43.556 C20.644,44.544 22.828,47.144 23.296,48.08 C24.18,49.796 24.7,49.692 25.74,48.184 C27.456,45.688 27.976,43.66 27.612,37.94 C27.456,35.34 27.144,27.8 27.04,24.524 C27.976,25.72 29.12,27.228 30.212,28.84 C32.864,32.636 36.66,37.472 37.96,38.928 C39.624,40.8 40.768,40.956 48.62,40.28 C51.948,40.02 52,39.292 49.244,38.46 L49.244,38.46 Z M21.216,27.436 C22.1,26.604 22.204,26.032 20.384,24.68 C19.032,23.692 18.512,23.848 17.316,24.524 C15.392,25.668 10.244,26.448 6.708,26.292 C5.408,26.24 5.252,26.864 6.344,27.748 C7.852,28.996 8.424,29.1 9.88,28.632 C11.804,28.06 14.404,27.384 16.12,27.02 C17.472,26.76 17.524,26.864 16.588,28.84 C15.6,30.92 14.144,33.468 12.896,34.924 C10.244,37.888 7.02,40.28 5.148,41.424 C3.692,42.308 3.9,43.192 5.928,42.516 C8.736,41.58 12.376,39.084 14.248,37.212 C16.276,35.132 18.512,31.908 19.136,30.556 C19.552,29.724 20.384,28.216 21.216,27.436 L21.216,27.436 Z"
          id="永" sketch:type="MSShapeGroup"></path>
      </g>
    </g>
  </g>
</svg>
