<svg xmlns="http://www.w3.org/2000/svg" xmlns:sketch="http://www.bohemiancoding.com/sketch/ns" width="23" height="23" viewBox="0 0 23 23" version="1.1">
  <g id="Study-assets" fill="none" fill-rule="evenodd" sketch:type="MSPage">
    <g id="study-info" sketch:type="MSArtboardGroup">
      <path d="M11.52 0C5.16 0 0 5.16 0 11.52 0 17.88 5.16 23.04 11.52 23.04 17.88 23.04 23.04 17.88 23.04 11.52 23.04 5.16 17.88 0 11.52 0L11.52 0ZM12.6 4.16C13.72 4.16 14.05 4.81 14.05 5.56 14.05 6.49 13.31 7.35 12.03 7.35 10.97 7.35 10.47 6.81 10.5 5.93 10.5 5.18 11.12 4.16 12.6 4.16L12.6 4.16ZM9.72 18.42C8.95 18.42 8.39 17.95 8.93 15.91L9.81 12.28C9.96 11.7 9.98 11.46 9.81 11.46 9.58 11.46 8.58 11.86 7.99 12.26L7.61 11.63C9.48 10.07 11.62 9.16 12.54 9.16 13.31 9.16 13.43 10.07 13.05 11.46L12.04 15.28C11.86 15.95 11.94 16.19 12.12 16.19 12.35 16.19 13.1 15.91 13.85 15.32L14.28 15.91C12.46 17.72 10.49 18.42 9.72 18.42L9.72 18.42Z" sketch:type="MSShapeGroup"/>
    </g>
  </g>
</svg>
