<?xml version="1.0" encoding="UTF-8" standalone="no"?>
<svg width="24" height="24" viewBox="0 0 24 24" version="1.1" xmlns="http://www.w3.org/2000/svg" xmlns:sketch="http://www.bohemiancoding.com/sketch/ns">
 <g id="Study-assets" fill="none" fill-rule="evenodd" sketch:type="MSPage">
  <g id="study-word-volume" sketch:type="MSArtboardGroup" fill="#87a64b">
   <path d="M0,14.0965586 C0,15.2057366 0.9047273,16.1049031 2.00111032,16.1049031 L3.33222302,16.1049031 C4.43740573,16.1049031 5.96051715,16.7485353 6.73088513,17.5391067 L10.6024482,21.5122045 C11.3742947,22.3042934 12,22.0473687 12,20.9455294 L12,3.05447058 C12,1.94941574 11.3728162,1.69722398 10.6024482,2.48779546 L6.73088513,6.46089326 C5.95903858,7.25298207 4.42860603,7.89509692 3.33222302,7.89509692 L2.00111032,7.89509692 C0.895927606,7.89509692 0,8.78931849 0,9.90344144 L0,14.0965586 Z M18,12 C18,9.58494869 16.64,7.49828962 14.6666667,6.49258837 L14.6666667,17.5142531 C16.64,16.5017104 18,14.4150513 18,12 L18,12 Z M14.6666667,2.82554162 C18.52,4.0022805 21.3333333,7.66248575 21.3333333,12 C21.3333333,16.3375143 18.52,19.9977195 14.6666667,21.1744584 L14.6666667,24 C20.0066667,22.7548461 24,17.8631699 24,12 C24,6.1368301 20.0066667,1.24515393 14.6666667,3.55271368e-15 L14.6666667,2.82554162 Z" sketch:type="MSShapeGroup"/>
  </g>
 </g>
</svg>
