<?xml version="1.0" encoding="UTF-8" standalone="no"?>
<svg width="30" height="30" viewBox="0 0 30 30" version="1.1" xmlns="http://www.w3.org/2000/svg"
     xmlns:sketch="http://www.bohemiancoding.com/sketch/ns">
    <g id="Study-assets" fill="none" fill-rule="evenodd" sketch:type="MSPage">
        <g id="study-light-settings" sketch:type="MSArtboardGroup" fill="#714918">
            <path
                    d="M26.992,14.9648889 C26.992,13.1 28.1404444,11.6315556 29.8666667,10.6217778 C29.5537778,9.58355556 29.1431111,8.58622222 28.6364444,7.64933333 C26.7004444,8.156 25.1342222,7.39866667 23.8168889,6.07955556 C22.4995556,4.764 22.096,3.19777778 22.6026667,1.26 C21.6657778,0.753333333 20.6684444,0.339111111 19.6302222,0.0315555556 C18.6204444,1.756 16.7946667,2.90266667 14.9333333,2.90266667 C13.0702222,2.90266667 11.2462222,1.756 10.2346667,0.0315555556 C9.19466667,0.339111111 8.20088889,0.753333333 7.264,1.26 C7.77066667,3.19777778 7.36888889,4.764 6.048,6.07955556 C4.73244444,7.39866667 3.16622222,8.156 1.22844444,7.64933333 C0.721777778,8.58622222 0.309333333,9.58355556 4.12509533e-14,10.6217778 C1.72444444,11.6315556 2.87111111,13.1 2.87111111,14.9648889 C2.87111111,16.8262222 1.72444444,18.652 4.08562073e-14,19.6635556 C0.311111111,20.7017778 0.721777778,21.6973333 1.22844444,22.636 C3.16622222,22.1293333 4.73244444,22.5311111 6.048,23.8484444 C7.36533333,25.1675556 7.77066667,26.7337778 7.264,28.668 C8.20088889,29.1746667 9.19644444,29.5888889 10.2364444,29.9 C11.2462222,28.1702222 13.072,27.0253333 14.9351111,27.0253333 C16.7964444,27.0253333 18.6222222,28.172 19.6337778,29.9 C20.672,29.5871111 21.6675556,29.1746667 22.6062222,28.668 C22.0995556,26.7337778 22.5013333,25.1675556 23.8204444,23.8484444 C25.1377778,22.5328889 26.704,21.7755556 28.64,22.2786667 C29.1466667,21.3417778 29.5591111,20.348 29.8702222,19.3062222 C28.1404444,18.2946667 26.992,16.8262222 26.992,14.9648889 L26.992,14.9648889 Z M14.9333333,21.4573333 C11.3457778,21.4573333 8.43911111,18.5506667 8.43911111,14.9648889 C8.43911111,11.3773333 11.3475556,8.46888889 14.9333333,8.46888889 C18.5208889,8.46888889 21.4257778,11.3791111 21.4257778,14.9648889 C21.4257778,18.5524444 18.5208889,21.4573333 14.9333333,21.4573333 L14.9333333,21.4573333 Z"
                    id="study-settings" sketch:type="MSShapeGroup"/>
        </g>
    </g>
</svg>
