<?xml version="1.0" encoding="UTF-8" standalone="no"?>
<svg width="32" height="29" viewBox="0 0 32 29" version="1.1" xmlns="http://www.w3.org/2000/svg"
		 xmlns:sketch="http://www.bohemiancoding.com/sketch/ns">
	<g id="Study-assets" fill="none" fill-rule="evenodd" sketch:type="MSPage">
		<g id="study-dark-list" sketch:type="MSArtboardGroup" transform="translate(0.000000, 0.800000)" fill="#666c73">
			<path
				d="M26.0571429,11.6666667 L12.8,11.6666667 C11.5382857,11.6666667 11.4285714,12.7096667 11.4285714,14 C11.4285714,15.2903333 11.5382857,16.3333333 12.8,16.3333333 L26.0571429,16.3333333 C27.3188571,16.3333333 27.4285714,15.2903333 27.4285714,14 C27.4285714,12.7096667 27.3188571,11.6666667 26.0571429,11.6666667 L26.0571429,11.6666667 Z M30.6285714,23.3333333 L12.8,23.3333333 C11.5382857,23.3333333 11.4285714,24.3763333 11.4285714,25.6666667 C11.4285714,26.957 11.5382857,28 12.8,28 L30.6285714,28 C31.8902857,28 32,26.957 32,25.6666667 C32,24.3763333 31.8902857,23.3333333 30.6285714,23.3333333 L30.6285714,23.3333333 Z M30.6285714,4.66666667 C31.8902857,4.66666667 32,3.62366667 32,2.33333333 C32,1.043 31.8902857,0 30.6285714,0 L12.8,0 C11.5382857,0 11.4285714,1.043 11.4285714,2.33333333 C11.4285714,3.62366667 11.5382857,4.66666667 12.8,4.66666667 L30.6285714,4.66666667 Z M5.48571429,11.6666667 L1.37142857,11.6666667 C0.109714286,11.6666667 0,12.7096667 0,14 C0,15.2903333 0.109714286,16.3333333 1.37142857,16.3333333 L5.48571429,16.3333333 C6.74742857,16.3333333 6.85714286,15.2903333 6.85714286,14 C6.85714286,12.7096667 6.74742857,11.6666667 5.48571429,11.6666667 L5.48571429,11.6666667 Z M5.48571429,23.3333333 L1.37142857,23.3333333 C0.109714286,23.3333333 0,24.3763333 0,25.6666667 C0,26.957 0.109714286,28 1.37142857,28 L5.48571429,28 C6.74742857,28 6.85714286,26.957 6.85714286,25.6666667 C6.85714286,24.3763333 6.74742857,23.3333333 5.48571429,23.3333333 L5.48571429,23.3333333 Z M5.48571429,0 L1.37142857,0 C0.109714286,0 0,1.043 0,2.33333333 C0,3.62366667 0.109714286,4.66666667 1.37142857,4.66666667 L5.48571429,4.66666667 C6.74742857,4.66666667 6.85714286,3.62366667 6.85714286,2.33333333 C6.85714286,1.043 6.74742857,0 5.48571429,0 L5.48571429,0 Z"
				id="study-list" sketch:type="MSShapeGroup"/>
		</g>
	</g>
</svg>
