<?xml version="1.0" encoding="UTF-8" standalone="no"?>
<svg viewBox="0 0 58 34" version="1.1" xmlns="http://www.w3.org/2000/svg"
     xmlns:sketch="http://www.bohemiancoding.com/sketch/ns">
  <g id="Study-assets" fill="none" fill-rule="evenodd" sketch:type="MSPage">
    <g id="study-show" sketch:type="MSArtboardGroup" fill="#87a64b">
      <path
        d="M29,0.0189189189 C9.9731,0.0189189189 0,14.2910425 0,16.5594595 C0,18.8219691 9.9731,33.1 29,33.1 C48.024,33.1 58,18.8219691 58,16.5594595 C58,14.2910425 48.024,0.0189189189 29,0.0189189189 L29,0.0189189189 Z M29,29.2809073 C21.8805,29.2809073 16.1095,23.5862355 16.1095,16.5594595 C16.1095,9.5326834 21.8805,3.83210425 29,3.83210425 C36.1195,3.83210425 41.8876,9.5326834 41.8876,16.5594595 C41.8876,23.5862355 36.1195,29.2809073 29,29.2809073 L29,29.2809073 Z M29,16.5594595 C27.8197,15.2391699 30.9227,10.1972587 29,10.1972587 C25.4388,10.1972587 22.5533,13.0475483 22.5533,16.5594595 C22.5533,20.0713707 25.4388,22.9216602 29,22.9216602 C32.5583,22.9216602 35.4467,20.0713707 35.4467,16.5594595 C35.4467,14.9438031 30.0034,17.6788996 29,16.5594595 L29,16.5594595 Z"
        sketch:type="MSShapeGroup"/>
    </g>
  </g>
</svg>
