<svg xmlns="http://www.w3.org/2000/svg" xmlns:sketch="http://www.bohemiancoding.com/sketch/ns" width="24" height="24" viewBox="0 0 24 24" version="1.1">
  <g id="Study-assets" fill="none" fill-rule="evenodd" sketch:type="MSPage">
    <g id="study-word-volume" sketch:type="MSArtboardGroup">
      <path d="M0 14.1C0 15.21 0.9 16.1 2 16.1L3.33 16.1C4.44 16.1 5.96 16.75 6.73 17.54L10.6 21.51C11.37 22.3 12 22.05 12 20.95L12 3.05C12 1.95 11.37 1.7 10.6 2.49L6.73 6.46C5.96 7.25 4.43 7.9 3.33 7.9L2 7.9C0.9 7.9 0 8.79 0 9.9L0 14.1ZM18 12C18 9.58 16.64 7.5 14.67 6.49L14.67 17.51C16.64 16.5 18 14.42 18 12L18 12ZM14.67 2.83C18.52 4 21.33 7.66 21.33 12 21.33 16.34 18.52 20 14.67 21.17L14.67 24C20.01 22.75 24 17.86 24 12 24 6.14 20.01 1.25 14.67 0L14.67 2.83Z" sketch:type="MSShapeGroup"/>
    </g>
  </g>
</svg>
