<?xml version="1.0" encoding="UTF-8" standalone="no"?>
<svg width="23" height="23" viewBox="0 0 23 23" version="1.1" xmlns="http://www.w3.org/2000/svg"
     xmlns:sketch="http://www.bohemiancoding.com/sketch/ns">
    <g id="Study-assets" fill="none" fill-rule="evenodd" sketch:type="MSPage">
        <g id="study-info" sketch:type="MSArtboardGroup" fill="#87a64b">
            <path
                    d="M11.5212,-2.66453526e-14 C5.1576,-2.66453526e-14 1.77635684e-15,5.1576 1.77635684e-15,11.52 C1.77635684e-15,17.8836 5.1576,23.0412 11.5212,23.0412 C17.8824,23.0412 23.0412,17.8836 23.0412,11.52 C23.0412,5.1576 17.8824,-2.66453526e-14 11.5212,-2.66453526e-14 L11.5212,-2.66453526e-14 Z M12.5964,4.1592 C13.7196,4.1592 14.0496,4.8108 14.0496,5.556 C14.0496,6.486 13.3056,7.3464 12.0348,7.3464 C10.9716,7.3464 10.4652,6.8124 10.4964,5.928 C10.4964,5.1828 11.1192,4.1592 12.5964,4.1592 L12.5964,4.1592 Z M9.7188,18.42 C8.9508,18.42 8.3904,17.9532 8.9268,15.9072 L9.8064,12.2772 C9.9588,11.6964 9.984,11.4636 9.8064,11.4636 C9.5772,11.4636 8.58,11.8644 7.992,12.2604 L7.6092,11.6328 C9.4752,10.074 11.6208,9.1596 12.5388,9.1596 C13.3068,9.1596 13.434,10.0668 13.0512,11.4636 L12.0432,15.2796 C11.8644,15.954 11.9412,16.1868 12.12,16.1868 C12.3504,16.1868 13.104,15.9084 13.8456,15.324 L14.28,15.9072 C12.4644,17.7216 10.4856,18.42 9.7188,18.42 L9.7188,18.42 Z"
                    sketch:type="MSShapeGroup"/>
        </g>
    </g>
</svg>
