<?xml version="1.0" encoding="UTF-8" standalone="no"?>
<svg width="31" height="31" viewBox="0 0 31 31" version="1.1" xmlns="http://www.w3.org/2000/svg"
     xmlns:sketch="http://www.bohemiancoding.com/sketch/ns">
    <g id="Study-assets" fill="none" fill-rule="evenodd" sketch:type="MSPage">
        <g id="study-dark-collapse-nav" sketch:type="MSArtboardGroup" transform="translate(0.000000, 0.000000)"
           fill="#666c73">
            <path
                    d="M19.368,13.2768 L15.36,16.96 L11.3504,13.2768 C11.0336,12.9632 10.5216,12.9632 10.2016,13.2768 C9.8864,13.5904 9.8864,14.1008 10.2016,14.4128 L14.784,18.904 C15.1024,19.2176 15.616,19.2176 15.9312,18.904 L20.5136,14.4128 C20.832,14.1008 20.8304,13.5904 20.5136,13.2768 C20.1984,12.9632 19.6864,12.9632 19.368,13.2768 L19.368,13.2768 Z M15.36,-3.55271368e-14 C6.8768,-3.55271368e-14 -3.73034936e-14,6.8768 -3.73034936e-14,15.36 C-3.73034936e-14,23.8448 6.8768,30.72 15.36,30.72 C23.8432,30.72 30.72,23.8448 30.72,15.36 C30.72,6.8768 23.8432,-3.55271368e-14 15.36,-3.55271368e-14 L15.36,-3.55271368e-14 Z M15.36,28.7264 C7.976,28.7264 1.9936,22.7424 1.9936,15.36 C1.9936,7.9776 7.976,1.9936 15.36,1.9936 C22.7408,1.9936 28.7264,7.9776 28.7264,15.36 C28.7264,22.7424 22.7408,28.7264 15.36,28.7264 L15.36,28.7264 Z"
                    id="Shape" sketch:type="MSShapeGroup"
                    transform="translate(15.360000, 15.360000) rotate(-180.000000) translate(-15.360000, -15.360000) "/>
        </g>
    </g>
</svg>
