<?xml version="1.0" encoding="UTF-8" standalone="no"?>
<svg width="19" height="23" viewBox="0 0 19 23" version="1.1" xmlns="http://www.w3.org/2000/svg" xmlns:sketch="http://www.bohemiancoding.com/sketch/ns">
 <g id="Study-assets" fill="none" fill-rule="evenodd" sketch:type="MSPage">
  <g id="study-word-edit" sketch:type="MSArtboardGroup" fill="#87a64b">
   <path d="M15.8158317,1.72918775 C13.2655399,-0.106886208 11.450443,-0.0669426119 10.7610293,0.0435680033 C10.5671318,0.0741914268 10.4042039,0.184702042 10.2897505,0.340482066 L4.06886955,8.82716473 L1.0217151,12.9852931 C0.648731544,13.4939082 0.43328978,14.0983879 0.399627005,14.7255024 L0.00105974112,22.2135952 C-0.0272169904,22.7528337 0.515426953,23.1429495 1.02440812,22.9498888 L8.10167007,20.2736679 C8.69817446,20.0473208 9.2165812,19.6545421 9.59091127,19.1432641 L12.0738776,15.7547157 L18.8549071,6.50244745 C18.9747466,6.33867871 19.023221,6.13896073 18.9895582,5.93924275 C18.8764513,5.23889837 18.3338074,3.53996409 15.8158317,1.72918775 L15.8158317,1.72918775 Z M8.12321425,18.7771145 L5.37229222,19.827631 C5.26457134,19.8689061 5.14473186,19.8356197 5.07471329,19.7450809 C4.72058089,19.2990441 4.29912293,18.8570017 3.62721393,18.3736841 C2.95530493,17.8916981 2.40054239,17.6307333 1.86328449,17.4336782 C1.75556361,17.3937346 1.68689155,17.2925441 1.6936241,17.1780392 L1.85789845,14.2674825 L2.597133,13.2622353 C2.597133,13.2622353 4.25199505,13.0372197 6.41179873,14.5910256 C8.5689094,16.1435 8.86379531,17.7705358 8.86379531,17.7705358 L8.12321425,18.7771145 L8.12321425,18.7771145 Z" sketch:type="MSShapeGroup"/>
  </g>
 </g>
</svg>
