<?xml version="1.0" encoding="UTF-8" standalone="no"?>
<svg width="23" height="23" viewBox="0 0 23 23" version="1.1" xmlns="http://www.w3.org/2000/svg"
     xmlns:sketch="http://www.bohemiancoding.com/sketch/ns">
    <g id="Study-assets" fill="none" fill-rule="evenodd" sketch:type="MSPage">
        <g id="study-ban" sketch:type="MSArtboardGroup">
            <path
                    d="M11.5212,4.26325641e-14 C5.1576,4.26325641e-14 2.48689958e-14,5.1576 2.48689958e-14,11.52 C2.48689958e-14,17.8836 5.1576,23.0412 11.5212,23.0412 C17.8824,23.0412 23.0412,17.8836 23.0412,11.52 C23.0412,5.1576 17.8824,4.26325641e-14 11.5212,4.26325641e-14 L11.5212,4.26325641e-14 Z M11.52,20.64 C6.4836,20.64 2.4,16.5576 2.4,11.52 C2.4,6.4824 6.4824,2.4 11.52,2.4 C16.5576,2.4 20.6412,6.4836 20.6412,11.52 C20.6412,16.5564 16.5564,20.64 11.52,20.64 L11.52,20.64 Z"
                    id="Shape" fill="#87a64b" sketch:type="MSShapeGroup"/>
            <path d="M18.625,4.375 L4.62388396,18.3761153" id="Line" stroke="#87a64b" stroke-width="2"
                  stroke-linecap="square"
                  sketch:type="MSShapeGroup"/>
        </g>
    </g>
</svg>
