<?xml version="1.0" encoding="UTF-8" standalone="no"?>
<svg width="28" height="28" viewBox="0 0 28 28" version="1.1" xmlns="http://www.w3.org/2000/svg"
		 xmlns:sketch="http://www.bohemiancoding.com/sketch/ns">
	<g id="Study-assets" fill="none" fill-rule="evenodd" sketch:type="MSPage">
		<g id="study-light-add-word" sketch:type="MSArtboardGroup" fill="#714918">
			<path
				d="M14,-8.8817842e-15 C6.26833333,-8.8817842e-15 3.90798505e-14,6.26833333 3.90798505e-14,14 C3.90798505e-14,21.7316667 6.26833333,28 14,28 C21.7316667,28 28,21.7316667 28,14 C28,6.26833333 21.7316667,-8.8817842e-15 14,-8.8817842e-15 L14,-8.8817842e-15 Z M22.3333333,15.6666667 L15.6666667,15.6666667 L15.6666667,22.3333333 L12.3333333,22.3333333 L12.3333333,15.6666667 L5.66666667,15.6666667 L5.66666667,12.3333333 L12.3333333,12.3333333 L12.3333333,5.66666667 L15.6666667,5.66666667 L15.6666667,12.3333333 L22.3333333,12.3333333 L22.3333333,15.6666667 L22.3333333,15.6666667 Z"
				id="study-add-word" sketch:type="MSShapeGroup"/>
		</g>
	</g>
</svg>
