<?xml version="1.0" encoding="UTF-8" standalone="no"?>
<svg width="23" height="23" viewBox="0 0 23 23" version="1.1" xmlns="http://www.w3.org/2000/svg" xmlns:sketch="http://www.bohemiancoding.com/sketch/ns">
 <g id="Study-assets" fill="none" fill-rule="evenodd" sketch:type="MSPage">
  <g id="study-char-decomp" sketch:type="MSArtboardGroup" fill="#87a64b">
   <path d="M20.92,14.32 C20.92,12.0004 19.0396,10.12 16.72,10.12 L14.32,10.12 C13.3264,10.12 12.52,9.3136 12.52,8.32 L12.52,5.5312 C13.51,5.0752 14.2,4.0816 14.2,2.92 C14.2,1.3288 12.9112,0.04 11.32,0.04 C9.7288,0.04 8.44,1.3288 8.44,2.92 C8.44,4.0804 9.1312,5.0752 10.12,5.5312 L10.12,8.32 C10.12,9.3136 9.3136,10.12 8.32,10.12 L5.92,10.12 C3.6004,10.12 1.72,12.0004 1.72,14.32 L1.72,17.1088 C0.73,17.5648 0.04,18.5596 0.04,19.72 C0.04,21.3112 1.3288,22.6 2.92,22.6 C4.5112,22.6 5.8,21.31 5.8,19.72 C5.8,18.5596 5.1088,17.5648 4.12,17.1088 L4.12,14.32 C4.12,13.3264 4.9264,12.52 5.92,12.52 L8.32,12.52 C8.9668,12.52 9.5728,12.3616 10.12,12.1 L10.12,17.1088 C9.13,17.5648 8.44,18.5596 8.44,19.72 C8.44,21.3112 9.7288,22.6 11.32,22.6 C12.9112,22.6 14.2,21.31 14.2,19.72 C14.2,18.5596 13.5088,17.5648 12.52,17.1088 L12.52,12.1 C13.0672,12.3616 13.6732,12.52 14.32,12.52 L16.72,12.52 C17.7136,12.52 18.52,13.3264 18.52,14.32 L18.52,17.1088 C17.53,17.5648 16.84,18.5584 16.84,19.72 C16.84,21.3112 18.1288,22.6 19.72,22.6 C21.3112,22.6 22.6,21.31 22.6,19.72 C22.6,18.5596 21.91,17.5648 20.92,17.1088 L20.92,14.32 Z M11.32,1.258 C12.2368,1.258 12.9808,2.0008 12.9808,2.92 C12.9808,3.8368 12.2368,4.582 11.32,4.582 C10.402,4.582 9.6592,3.8368 9.6592,2.92 C9.6592,2.0008 10.402,1.258 11.32,1.258 L11.32,1.258 Z M2.92,21.382 C2.0008,21.382 1.258,20.6368 1.258,19.72 C1.258,18.8008 2.0008,18.058 2.92,18.058 C3.8368,18.058 4.5808,18.8008 4.5808,19.72 C4.5808,20.6368 3.8368,21.382 2.92,21.382 L2.92,21.382 Z M11.32,21.382 C10.4008,21.382 9.658,20.6368 9.658,19.72 C9.658,18.8008 10.4008,18.058 11.32,18.058 C12.2368,18.058 12.9808,18.8008 12.9808,19.72 C12.9808,20.6368 12.2368,21.382 11.32,21.382 L11.32,21.382 Z M19.72,21.382 C18.8008,21.382 18.058,20.6368 18.058,19.72 C18.058,18.8008 18.8008,18.058 19.72,18.058 C20.6368,18.058 21.3808,18.8008 21.3808,19.72 C21.3808,20.6368 20.6368,21.382 19.72,21.382 L19.72,21.382 Z" sketch:type="MSShapeGroup" transform="translate(11.320000, 11.320000) rotate(-90.000000) translate(-11.320000, -11.320000) "/>
  </g>
 </g>
</svg>
