<svg xmlns="http://www.w3.org/2000/svg" xmlns:sketch="http://www.bohemiancoding.com/sketch/ns" width="23" height="23" viewBox="0 0 23 23" version="1.1">
  <g id="Study-assets" fill="none" fill-rule="evenodd" sketch:type="MSPage">
    <g id="study-ban" sketch:type="MSArtboardGroup">
      <path d="M11.52 0C5.16 0 0 5.16 0 11.52 0 17.88 5.16 23.04 11.52 23.04 17.88 23.04 23.04 17.88 23.04 11.52 23.04 5.16 17.88 0 11.52 0L11.52 0ZM11.52 20.64C6.48 20.64 2.4 16.56 2.4 11.52 2.4 6.48 6.48 2.4 11.52 2.4 16.56 2.4 20.64 6.48 20.64 11.52 20.64 16.56 16.56 20.64 11.52 20.64L11.52 20.64Z" id="Shape" sketch:type="MSShapeGroup"/>
      <path d="M18.63 4.38L4.62 18.38" id="Line" stroke-width="2" stroke-linecap="square" sketch:type="MSShapeGroup"/>
    </g>
  </g>
</svg>
