<?xml version="1.0" encoding="UTF-8" standalone="no"?>
<svg width="18px" height="18px" viewBox="0 0 18 18" version="1.1" xmlns="http://www.w3.org/2000/svg"
		 xmlns:xlink="http://www.w3.org/1999/xlink" xmlns:sketch="http://www.bohemiancoding.com/sketch/ns">
	<!-- Generator: Sketch 3.2.2 (9983) - http://www.bohemiancoding.com/sketch -->
	<title>word-modal-added</title>
	<desc>Created with Sketch.</desc>
	<defs></defs>
	<g id="assets" stroke="none" stroke-width="1" fill="none" fill-rule="evenodd" sketch:type="MSPage">
		<g id="word-modal-added" sketch:type="MSArtboardGroup" fill="#87A64B">
			<g id="modal-added" sketch:type="MSLayerGroup">
				<path
					d="M0.6,9 C0.6,13.639 4.361,17.4 9,17.4 C13.639,17.4 17.4,13.639 17.4,9 C17.4,4.361 13.639,0.6 9,0.6 C4.361,0.6 0.6,4.361 0.6,9 Z M7.7215484,14 C7.39561207,14 7.08690916,13.8549889 6.88909952,13.6049697 L4.21192595,10.2325678 C3.86351126,9.79467701 3.954174,9.17105768 4.41423126,8.83888932 C4.87503779,8.50529226 5.52915829,8.59315616 5.87757298,9.03176127 L7.63912772,11.2490744 L12.0681154,4.46855365 C12.3730719,4.00280359 13.0174518,3.85993548 13.5074802,4.15067209 C13.9967593,4.44069437 14.1473644,5.05502727 13.8416586,5.52220601 L8.60869464,13.5299639 C8.42736914,13.8092711 8.11342127,13.9835702 7.76950225,13.9985713 C7.75301811,14 7.73803254,14 7.7215484,14 Z"
					id="Shape" sketch:type="MSShapeGroup"></path>
			</g>
		</g>
	</g>
</svg>
