<?xml version="1.0" encoding="UTF-8" standalone="no"?>
<svg width="20px" height="20px" viewBox="0 0 20 20" version="1.1" xmlns="http://www.w3.org/2000/svg"
     xmlns:xlink="http://www.w3.org/1999/xlink" xmlns:sketch="http://www.bohemiancoding.com/sketch/ns">
  <!-- Generator: Sketch 3.2.2 (9983) - http://www.bohemiancoding.com/sketch -->
  <title>word-modal-reset</title>
  <desc>Created with Sketch.</desc>
  <defs></defs>
  <g id="assets" stroke="none" stroke-width="1" fill="none" fill-rule="evenodd" sketch:type="MSPage">
    <g id="word-modal-reset" sketch:type="MSArtboardGroup" fill="#9CA0A4">
      <path
        d="M0.285,10.001 L2.657,10.001 L2.657,9.796 C2.765,5.362 6.381,1.8 10.826,1.8 C15.341,1.8 19,5.472 19,10.001 C19,14.53 15.341,18.2 10.826,18.2 C8.928,18.2 7.181,17.55 5.793,16.462 L7.199,14.958 C8.215,15.706 9.469,16.151 10.826,16.151 C14.212,16.151 16.957,13.397 16.957,10.001 C16.957,6.605 14.212,3.851 10.826,3.851 C7.509,3.851 4.808,6.494 4.701,9.796 L4.701,10.001 L7.373,10.001 L3.879,13.895 L0.285,10.001 L0.285,10.001 Z"
        id="Shape-2" sketch:type="MSShapeGroup"></path>
    </g>
  </g>
</svg>
