<?xml version="1.0" encoding="UTF-8" standalone="no"?>
<svg width="20px" height="20px" viewBox="0 0 20 20" version="1.1" xmlns="http://www.w3.org/2000/svg"
     xmlns:xlink="http://www.w3.org/1999/xlink" xmlns:sketch="http://www.bohemiancoding.com/sketch/ns">
  <!-- Generator: Sketch 3.2.2 (9983) - http://www.bohemiancoding.com/sketch -->
  <title>word-modal-ban</title>
  <desc>Created with Sketch.</desc>
  <defs></defs>
  <g id="assets" stroke="none" stroke-width="1" fill="none" fill-rule="evenodd" sketch:type="MSPage">
    <g id="word-modal-ban" sketch:type="MSArtboardGroup" fill="#9CA0A4">
      <path
        d="M10.001,0.400000006 C4.69800001,0.400000006 0.400000006,4.69800001 0.400000006,10 C0.400000006,15.303 4.69800001,19.601 10.001,19.601 C15.302,19.601 19.601,15.303 19.601,10 C19.601,4.69800001 15.302,0.400000006 10.001,0.400000006 L10.001,0.400000006 Z M2.40000001,10 C2.40000001,5.80300001 5.80200001,2.40000001 10,2.40000001 C11.829,2.40000001 13.506,3.04700001 14.817,4.12300001 L4.12300001,14.817 C3.04700001,13.505 2.40000001,11.829 2.40000001,10 L2.40000001,10 Z M10,17.599 C8.17200001,17.599 6.49500001,16.953 5.18500001,15.877 L15.879,5.18400001 C16.954,6.49600001 17.601,8.17100001 17.601,10 C17.601,14.197 14.197,17.599 10,17.599 L10,17.599 Z"
        id="Shape-3" sketch:type="MSShapeGroup"></path>
    </g>
  </g>
</svg>
