<?xml version="1.0" encoding="UTF-8" standalone="no"?>
<svg width="20px" height="20px" viewBox="0 0 20 20" version="1.1" xmlns="http://www.w3.org/2000/svg" xmlns:xlink="http://www.w3.org/1999/xlink" xmlns:sketch="http://www.bohemiancoding.com/sketch/ns">
    <!-- Generator: Sketch 3.2.2 (9983) - http://www.bohemiancoding.com/sketch -->
    <title>word-modal-right</title>
    <desc>Created with Sketch.</desc>
    <defs></defs>
    <g id="assets" stroke="none" stroke-width="1" fill="none" fill-rule="evenodd" sketch:type="MSPage">
        <g id="word-modal-right" sketch:type="MSArtboardGroup" fill="#87A64B">
            <g id="chevron-with-circle-right" sketch:type="MSLayerGroup">
                <path d="M11,10 L8.698,7.494 C8.502,7.296 8.502,6.975 8.698,6.776 C8.894,6.579 9.213,6.579 9.408,6.776 L12.215,9.64 C12.411,9.839 12.411,10.16 12.215,10.357 L9.408,13.221 C9.213,13.42 8.894,13.419 8.698,13.221 C8.502,13.024 8.502,12.703 8.698,12.504 L11,10 L11,10 Z M10,0.4 C15.302,0.4 19.6,4.698 19.6,10 C19.6,15.303 15.302,19.6 10,19.6 C4.698,19.6 0.4,15.303 0.4,10 C0.4,4.698 4.698,0.4 10,0.4 L10,0.4 Z M10,18.354 C14.613,18.354 18.354,14.614 18.354,10 C18.354,5.386 14.613,1.646 10,1.646 C5.385,1.646 1.646,5.386 1.646,10 C1.645,14.614 5.385,18.354 10,18.354 L10,18.354 Z" id="Shape" sketch:type="MSShapeGroup"></path>
            </g>
        </g>
    </g>
</svg>